<svg viewBox="0 0 20 20" fill="none" xmlns="http://www.w3.org/2000/svg">
<path d="M17.7725 6.56235C17.732 6.5209 17.6903 6.48067 17.6475 6.44172C17.605 6.40329 17.565 6.35985 17.5225 6.32125C17.48 6.28266 17.44 6.23922 17.3975 6.20079C17.355 6.16219 17.315 6.11875 17.2725 6.08016C17.23 6.04157 17.19 5.99828 17.1475 5.95969C17.105 5.9211 17.065 5.87766 17.0225 5.83907C16.98 5.80047 16.94 5.75719 16.8975 5.7186C18.1375 6.8936 18.8479 8.49235 18.875 10.1688C18.875 14.1633 14.67 17.413 9.49998 17.413C6.60498 17.413 4.01498 16.3933 2.29248 14.7948L2.41748 14.9155L2.54248 15.0359L2.66748 15.1566L2.79248 15.277L2.91748 15.3977L3.04248 15.5181L3.16748 15.6386C4.88748 17.3045 7.53498 18.3772 10.5 18.3772C15.67 18.3772 19.875 15.1277 19.875 11.1452C19.875 9.44313 19.115 7.83032 17.7725 6.56235Z" fill="black"/>
<path d="M18.25 10.1687C18.25 13.8355 14.3325 16.8078 9.5 16.8078C4.6675 16.8078 0.75 13.8355 0.75 10.1687C0.75 7.8953 2.25 5.88733 4.555 4.6964C6.86 3.50546 8.295 2.28561 9.5 2.28561C10.705 2.28561 11.735 3.28124 14.445 4.69655C16.75 5.88702 18.25 7.8953 18.25 10.1687Z" fill="#FBF0DF"/>
<path d="M18.2502 10.1687C18.2489 9.6972 18.1816 9.22816 18.0502 8.7753C17.3677 16.803 7.21271 17.1887 3.22021 14.7878C5.0149 16.129 7.22959 16.8415 9.50022 16.8078C14.3252 16.8078 18.2502 13.8306 18.2502 10.1687Z" fill="#F6DECE"/>
<path d="M6.1325 4.2553C7.25 3.60921 8.735 2.39655 10.195 2.39421C9.96992 2.3241 9.73574 2.28751 9.5 2.28561C8.895 2.28561 8.25 2.58718 7.4375 3.0403C7.155 3.19936 6.8625 3.3753 6.5525 3.55858C5.97 3.90577 5.3025 4.29858 4.5525 4.69155C2.1725 5.93311 0.75 7.97983 0.75 10.1687V10.4556C2.265 5.29421 5.0175 4.9014 6.1325 4.2553Z" fill="#FFFEFC"/>
<path d="M8.78012 2.89561C8.78333 3.4662 8.65922 4.03031 8.41684 4.54686C8.17135 5.06899 7.81501 5.53134 7.37262 5.90171C7.30262 5.96202 7.35762 6.0778 7.44762 6.0439C8.29012 5.72827 9.42762 4.78327 8.94762 2.8764C8.92762 2.7678 8.78012 2.79671 8.78012 2.89561ZM9.34762 2.89561C9.65243 3.37393 9.84702 3.91406 9.9173 4.47686C9.98684 5.03733 9.9298 5.60561 9.75012 6.1428C9.72012 6.22718 9.82762 6.29952 9.88762 6.22968C10.4351 5.55468 10.9126 4.21421 9.48262 2.7678C9.41012 2.7053 9.29762 2.80155 9.34762 2.88593V2.89561ZM10.0376 2.85468C10.5136 3.17845 10.9143 3.60075 11.2128 4.09296C11.5072 4.57915 11.6907 5.12437 11.7501 5.68968C11.7476 5.70999 11.7532 5.7303 11.7659 5.74671C11.779 5.7631 11.7978 5.77404 11.8185 5.77741C11.8392 5.78079 11.8604 5.77636 11.8781 5.76499C11.8955 5.75381 11.9079 5.73626 11.9126 5.71608C12.1426 4.87483 12.0126 3.44046 10.1201 2.69546C10.0201 2.65702 9.95512 2.78718 10.0376 2.84499V2.85468ZM5.42262 5.36171C5.98941 5.19919 6.51656 4.92141 6.97105 4.54577C7.41928 4.17541 7.78369 3.71402 8.04012 3.19218C8.08512 3.1053 8.22762 3.13905 8.20512 3.23546C7.77262 5.16405 6.32512 5.56671 5.42512 5.51358C5.33012 5.51608 5.33262 5.38827 5.42262 5.36171Z" fill="#CCBEA7"/>
<path d="M9.5 17.413C4.33 17.413 0.125 14.1633 0.125 10.1688C0.125 7.75798 1.67 5.50892 4.2575 4.16126C5.0075 3.77548 5.65 3.38736 6.2225 3.04751C6.5375 2.85955 6.835 2.68345 7.1225 2.51955C8 2.01814 8.75 1.68298 9.5 1.68298C10.25 1.68298 10.905 1.97236 11.725 2.44001C11.975 2.57751 12.225 2.72689 12.4925 2.8908C13.115 3.26205 13.8175 3.68142 14.7425 4.16126C17.33 5.50892 18.875 7.75564 18.875 10.1688C18.875 14.1633 14.67 17.413 9.5 17.413ZM9.5 2.2858C8.895 2.2858 8.25 2.58705 7.4375 3.04033C7.155 3.19939 6.8625 3.37533 6.5525 3.55861C5.97 3.9058 5.3025 4.29861 4.5525 4.69158C2.1725 5.93314 0.75 7.97986 0.75 10.1688C0.75 13.8306 4.675 16.8103 9.5 16.8103C14.325 16.8103 18.25 13.8306 18.25 10.1688C18.25 7.9797 16.8275 5.93314 14.445 4.69642C13.5 4.21423 12.7625 3.76111 12.165 3.40423C11.8925 3.24283 11.6425 3.0933 11.415 2.9608C10.6575 2.52673 10.105 2.2858 9.5 2.2858Z" fill="black"/>
<path d="M11.2624 11.9286C11.15 12.3722 10.8944 12.7697 10.5324 13.0641C10.2571 13.3197 9.90608 13.4787 9.53238 13.5172C9.14744 13.485 8.78418 13.3256 8.49988 13.0641C8.1416 12.7684 7.88957 12.3709 7.77988 11.9286C7.77627 11.9023 7.77895 11.8755 7.7877 11.8505C7.79651 11.8252 7.81106 11.8023 7.8302 11.7836C7.84993 11.7647 7.87356 11.7504 7.89943 11.7417C7.9253 11.733 7.95277 11.7302 7.97988 11.7333H11.0649C11.0918 11.7305 11.119 11.7337 11.1446 11.7426C11.1702 11.7515 11.1935 11.7659 11.2129 11.7848C11.2319 11.8032 11.2462 11.8258 11.2549 11.8508C11.2635 11.8758 11.266 11.9024 11.2624 11.9286Z" fill="#B71422"/>
<path d="M8.50002 13.0833C8.78368 13.345 9.14567 13.506 9.53002 13.5414C9.91349 13.5055 10.2745 13.3445 10.5575 13.0833C10.6467 13.0032 10.7302 12.9171 10.8075 12.8255C10.6522 12.656 10.4641 12.5197 10.2547 12.4248C10.0432 12.3289 9.8147 12.2758 9.58252 12.2686C9.33426 12.274 9.09076 12.3378 8.87174 12.4548C8.65556 12.5702 8.47054 12.7363 8.33252 12.9387C8.39002 12.9892 8.44002 13.0375 8.50002 13.0833Z" fill="#FF6164"/>
<path d="M8.54004 12.8928C8.66526 12.7373 8.82387 12.612 9.0041 12.5261C9.18639 12.4391 9.38555 12.3931 9.58754 12.3914C9.95936 12.401 10.3149 12.5459 10.5875 12.7989C10.645 12.7386 10.7 12.6759 10.7525 12.6133C10.4346 12.3211 10.0141 12.155 9.57504 12.148C9.34097 12.1498 9.11 12.2017 8.8977 12.3003C8.68769 12.3976 8.5016 12.5398 8.35254 12.7169C8.4116 12.7788 8.47426 12.8375 8.54004 12.8928Z" fill="black"/>
<path d="M9.52238 13.6619C9.1086 13.6279 8.71758 13.4584 8.40988 13.1797C8.02285 12.8641 7.7505 12.4375 7.63238 11.9623C7.62394 11.9202 7.62535 11.8764 7.6366 11.8347C7.64797 11.7928 7.66876 11.754 7.69738 11.7213C7.73202 11.6811 7.77528 11.6493 7.82394 11.6283C7.87306 11.6069 7.92632 11.5966 7.97988 11.5983H11.0649C11.1185 11.5972 11.1716 11.6077 11.2205 11.6289C11.2691 11.65 11.3124 11.6815 11.3474 11.7213C11.3758 11.7544 11.3963 11.7931 11.4071 11.835C11.418 11.8767 11.4189 11.9202 11.4099 11.9623C11.2918 12.4377 11.0193 12.8641 10.6324 13.1797C10.3253 13.4579 9.93528 13.6274 9.52238 13.6619ZM7.97988 11.878C7.93988 11.878 7.92988 11.8948 7.92738 11.8997C8.033 12.3119 8.27206 12.6808 8.60988 12.9531C8.86007 13.1893 9.18042 13.3374 9.52238 13.375C9.86351 13.3377 10.1835 13.1914 10.4349 12.9578C10.7716 12.6852 11.0097 12.3163 11.1149 11.9045C11.1093 11.8968 11.1018 11.8906 11.093 11.8869C11.0842 11.8831 11.0744 11.8817 11.0649 11.8828L7.97988 11.878Z" fill="black"/>
<path d="M13.3049 12.0781C14.1127 12.0781 14.7674 11.7067 14.7674 11.2487C14.7674 10.7908 14.1127 10.4195 13.3049 10.4195C12.4971 10.4195 11.8424 10.7908 11.8424 11.2487C11.8424 11.7067 12.4971 12.0781 13.3049 12.0781ZM5.7374 12.0781C6.54521 12.0781 7.1999 11.7067 7.1999 11.2487C7.1999 10.7908 6.54521 10.4195 5.7374 10.4195C4.92959 10.4195 4.2749 10.7908 4.2749 11.2487C4.2749 11.7067 4.92959 12.0781 5.7374 12.0781Z" fill="#FEBBD0"/>
<path d="M6.4248 10.9161C6.69619 10.9169 6.96208 10.8396 7.19074 10.6934C7.41574 10.5499 7.59278 10.3425 7.69918 10.0978C7.80371 9.85611 7.83142 9.58813 7.77855 9.33015C7.72471 9.07046 7.59355 8.83313 7.4023 8.64937C7.20746 8.46222 6.96241 8.33574 6.69699 8.28531C6.42986 8.23379 6.15356 8.25981 5.90074 8.36031C5.65093 8.45909 5.43573 8.62924 5.28199 8.84953C5.13114 9.0662 5.05013 9.3238 5.0498 9.58781C5.0498 9.93969 5.19465 10.2772 5.45246 10.5261C5.71027 10.7752 6.05996 10.9155 6.4248 10.9161ZM12.6173 10.9161C12.889 10.9183 13.1557 10.8422 13.3853 10.6969C13.6112 10.5543 13.7894 10.3474 13.897 10.1028C14.0027 9.86126 14.0315 9.59302 13.9795 9.33453C13.9264 9.0744 13.7958 8.83644 13.6048 8.65203C13.4103 8.46414 13.1654 8.33688 12.8998 8.28578C12.6324 8.2337 12.3557 8.25935 12.1025 8.35969C11.8523 8.45825 11.6367 8.62836 11.4826 8.84875C11.3314 9.06556 11.2501 9.32347 11.2498 9.58781C11.2492 9.93859 11.3926 10.2753 11.649 10.5244C11.9053 10.7733 12.2536 10.9142 12.6173 10.9161Z" fill="black"/>
<path d="M5.99986 9.6722C6.10188 9.67278 6.20191 9.64398 6.28799 9.58923C6.37346 9.53455 6.44018 9.45689 6.47971 9.3658C6.51924 9.275 6.52987 9.17425 6.51018 9.0772C6.49012 8.97957 6.44099 8.89029 6.36924 8.82111C6.29608 8.75064 6.20401 8.70298 6.10424 8.68392C6.00382 8.66445 5.89993 8.67416 5.80486 8.71189C5.71095 8.74896 5.63003 8.81287 5.57221 8.89564C5.51546 8.97706 5.48499 9.0739 5.48486 9.17314C5.48486 9.30501 5.53908 9.43158 5.63549 9.52517C5.73349 9.61925 5.86402 9.67202 5.99986 9.6722ZM12.1924 9.6722C12.2944 9.67278 12.3944 9.64398 12.4805 9.58923C12.566 9.53455 12.6327 9.45689 12.6722 9.3658C12.7117 9.275 12.7224 9.17425 12.7027 9.0772C12.6826 8.97957 12.6335 8.89029 12.5617 8.82111C12.4886 8.75064 12.3965 8.70298 12.2967 8.68392C12.1963 8.66445 12.0924 8.67416 11.9974 8.71189C11.9034 8.74896 11.8225 8.81287 11.7647 8.89564C11.708 8.97706 11.6775 9.0739 11.6774 9.17314C11.6774 9.30439 11.7308 9.43002 11.8263 9.52345C11.9216 9.61689 12.0513 9.67033 12.1874 9.6722H12.1924Z" fill="white"/>
</svg>
