<svg viewBox="0 0 24 24" fill="none" xmlns="http://www.w3.org/2000/svg">
<mask id="mask0_59_187" style="mask-type:alpha" maskUnits="userSpaceOnUse" x="0" y="0" width="24" height="24">
<rect x="0.712891" y="0.881897" width="24" height="24" fill="#D9D9D9"/>
</mask>
<g mask="url(#mask0_59_187)">
<path d="M9.77064 18.3819C9.26547 18.3819 8.83789 18.2069 8.48789 17.8569C8.13789 17.5069 7.96289 17.0793 7.96289 16.5741V5.18965C7.96289 4.68448 8.13789 4.2569 8.48789 3.9069C8.83789 3.5569 9.26547 3.3819 9.77064 3.3819H18.1551C18.6603 3.3819 19.0879 3.5569 19.4379 3.9069C19.7879 4.2569 19.9629 4.68448 19.9629 5.18965V16.5741C19.9629 17.0793 19.7879 17.5069 19.4379 17.8569C19.0879 18.2069 18.6603 18.3819 18.1551 18.3819H9.77064ZM9.77064 16.8819H18.1551C18.2321 16.8819 18.3026 16.8498 18.3666 16.7856C18.4308 16.7216 18.4629 16.6511 18.4629 16.5741V5.18965C18.4629 5.11265 18.4308 5.04215 18.3666 4.97815C18.3026 4.91398 18.2321 4.8819 18.1551 4.8819H9.77064C9.69364 4.8819 9.62314 4.91398 9.55914 4.97815C9.49497 5.04215 9.46289 5.11265 9.46289 5.18965V16.5741C9.46289 16.6511 9.49497 16.7216 9.55914 16.7856C9.62314 16.8498 9.69364 16.8819 9.77064 16.8819ZM6.27064 21.8819C5.76547 21.8819 5.33789 21.7069 4.98789 21.3569C4.63789 21.0069 4.46289 20.5793 4.46289 20.0741V7.18965H5.96289V20.0741C5.96289 20.1511 5.99497 20.2216 6.05914 20.2856C6.12314 20.3498 6.19364 20.3819 6.27064 20.3819H16.1551V21.8819H6.27064Z" fill="#1C1B1F"/>
</g>
</svg>
