<svg viewBox="0 0 24 24" fill="currentColor" xmlns="http://www.w3.org/2000/svg">
<path d="M13.4952 11.2948H11.135V9.17384H13.4952V11.2948ZM13.4952 4H11.135V6.16737H13.4952V4ZM16.2874 9.17027H13.9272V11.2912H16.2874V9.17027ZM10.7065 6.59585H8.34635V8.7418H10.7065V6.59585ZM13.4952 6.59585H11.135V8.7418H13.4952V6.59585ZM23.3787 10.1665C22.8645 9.82013 21.6791 9.69516 20.7686 9.86655C20.6507 9.0096 20.1723 8.26333 19.301 7.59206L18.8012 7.25999L18.4691 7.75988C17.8121 8.75251 17.6336 10.3879 18.337 11.4662C18.0263 11.634 17.4157 11.8625 16.6088 11.8482H1.08725C0.776607 13.6621 1.29435 16.0187 2.65833 17.6362C3.98303 19.2037 5.96831 20 8.56415 20C14.1843 20 18.3441 17.4113 20.2901 12.7088C21.0542 12.7231 22.7039 12.7123 23.5501 11.0948C23.6037 11.0056 23.7858 10.6235 23.8536 10.4843L23.3787 10.1665ZM5.12921 9.17027H2.77259V11.2912H5.13278V9.17027H5.12921ZM7.91787 9.17027H5.55768V11.2912H7.91787V9.17027ZM10.7065 9.17027H8.34635V11.2912H10.7065V9.17027ZM7.91787 6.59585H5.55768V8.7418H7.91787V6.59585Z" fill="currentColor" fill-opacity="0.9"/>
</svg>
