<svg viewBox="0 0 20 20" fill="none" xmlns="http://www.w3.org/2000/svg">
<path d="M19.4999 8.14062C18.8281 7.75 17.9374 7.70313 17.1874 7.92188C17.0937 7.10938 16.5624 6.40625 15.9374 5.90625L15.6874 5.70312L15.4687 5.95312C15.0468 6.4375 14.9218 7.25 14.9843 7.875C15.0312 8.32813 15.1718 8.79688 15.4531 9.17188C15.2343 9.29688 14.9999 9.46875 14.7812 9.54688C14.3437 9.70312 13.8593 9.85938 13.3906 9.85938H12.3437V7.65625H10.3124V3.75H7.96869V5.625H4.06244V7.65625H2.03119V9.84375H0.281187L0.249937 10.0781C0.171812 11.0781 0.296812 12.0469 0.718687 12.9688L0.890562 13.3125L0.906187 13.3438C2.14056 15.4375 4.29681 16.3125 6.65619 16.3125C11.2187 16.3125 14.9843 14.2656 16.7031 9.96875C17.8593 10.0312 19.0468 9.6875 19.6093 8.57812L19.7499 8.29688L19.4999 8.14062ZM4.37494 6.09375H5.93744V7.8125H4.37494V6.09375ZM6.42181 13C6.42181 13.2656 6.20306 13.4844 5.93744 13.4844C5.67181 13.4844 5.45306 13.2656 5.45306 13C5.45306 12.7344 5.67181 12.5156 5.93744 12.5156C6.20306 12.5312 6.42181 12.7344 6.42181 13ZM4.37494 8.125H5.93744V9.84375H4.37494V8.125ZM2.34369 8.125H4.06244V9.84375H2.34369V8.125ZM6.67181 15.9688C4.20306 15.9531 2.87494 15.125 1.78119 14.0312C2.10931 14.0469 2.42181 14.0625 2.70306 14.0625C2.95306 14.0625 3.20306 14.0625 3.43744 14.0469C4.04681 14.0156 4.57806 13.9375 5.01556 13.8125C5.37494 14.6406 6.03119 15.4062 7.20306 15.9688H6.67181ZM7.96869 9.84375H6.24994V8.125H7.96869V9.84375ZM7.96869 7.8125H6.24994V6.09375H7.96869V7.8125ZM9.99994 9.84375H8.28119V8.125H9.99994V9.84375ZM9.99994 7.8125H8.28119V6.09375H9.99994V7.8125ZM9.99994 5.78125H8.28119V4.0625H9.99994V5.78125ZM12.0312 9.84375H10.3124V8.125H12.0312V9.84375ZM6.06244 12.6875C6.03119 12.6719 5.98431 12.6562 5.93744 12.6562C5.74994 12.6562 5.59369 12.8125 5.59369 13C5.59369 13.1875 5.74994 13.3438 5.93744 13.3438C6.12494 13.3438 6.28119 13.1875 6.28119 13C6.28119 12.9531 6.26556 12.9062 6.24994 12.875C6.21869 12.9219 6.18744 12.9531 6.12494 12.9531C6.04681 12.9531 5.98431 12.8906 5.98431 12.8125C5.99994 12.75 6.03119 12.7031 6.06244 12.6875Z" fill="#019BC6"/>
</svg>
