<svg viewBox="0 0 20 20" fill="none" xmlns="http://www.w3.org/2000/svg">
<path d="M13.4375 6.25H6.5625C6.38991 6.25 6.25 6.38991 6.25 6.5625V13.4375C6.25 13.6101 6.38991 13.75 6.5625 13.75H13.4375C13.6101 13.75 13.75 13.6101 13.75 13.4375V6.5625C13.75 6.38991 13.6101 6.25 13.4375 6.25Z" fill="black"/>
<path d="M18.125 7.5C18.2908 7.5 18.4497 7.43415 18.5669 7.31694C18.6842 7.19973 18.75 7.04076 18.75 6.875C18.75 6.70924 18.6842 6.55027 18.5669 6.43306C18.4497 6.31585 18.2908 6.25 18.125 6.25H17.5V5C17.4993 4.33718 17.2357 3.70172 16.767 3.23303C16.2983 2.76435 15.6628 2.50072 15 2.5H13.75V1.875C13.75 1.70924 13.6842 1.55027 13.5669 1.43306C13.4497 1.31585 13.2908 1.25 13.125 1.25C12.9592 1.25 12.8003 1.31585 12.6831 1.43306C12.5658 1.55027 12.5 1.70924 12.5 1.875V2.5H10.625V1.875C10.625 1.70924 10.5592 1.55027 10.4419 1.43306C10.3247 1.31585 10.1658 1.25 10 1.25C9.83424 1.25 9.67527 1.31585 9.55806 1.43306C9.44085 1.55027 9.375 1.70924 9.375 1.875V2.5H7.5V1.875C7.5 1.70924 7.43415 1.55027 7.31694 1.43306C7.19973 1.31585 7.04076 1.25 6.875 1.25C6.70924 1.25 6.55027 1.31585 6.43306 1.43306C6.31585 1.55027 6.25 1.70924 6.25 1.875V2.5H5C4.33718 2.50072 3.70172 2.76435 3.23303 3.23303C2.76435 3.70172 2.50072 4.33718 2.5 5V6.25H1.875C1.70924 6.25 1.55027 6.31585 1.43306 6.43306C1.31585 6.55027 1.25 6.70924 1.25 6.875C1.25 7.04076 1.31585 7.19973 1.43306 7.31694C1.55027 7.43415 1.70924 7.5 1.875 7.5H2.5V9.375H1.875C1.70924 9.375 1.55027 9.44085 1.43306 9.55806C1.31585 9.67527 1.25 9.83424 1.25 10C1.25 10.1658 1.31585 10.3247 1.43306 10.4419C1.55027 10.5592 1.70924 10.625 1.875 10.625H2.5V12.5H1.875C1.70924 12.5 1.55027 12.5658 1.43306 12.6831C1.31585 12.8003 1.25 12.9592 1.25 13.125C1.25 13.2908 1.31585 13.4497 1.43306 13.5669C1.55027 13.6842 1.70924 13.75 1.875 13.75H2.5V15C2.50072 15.6628 2.76435 16.2983 3.23303 16.767C3.70172 17.2357 4.33718 17.4993 5 17.5H6.25V18.125C6.25 18.2908 6.31585 18.4497 6.43306 18.5669C6.55027 18.6842 6.70924 18.75 6.875 18.75C7.04076 18.75 7.19973 18.6842 7.31694 18.5669C7.43415 18.4497 7.5 18.2908 7.5 18.125V17.5H9.375V18.125C9.375 18.2908 9.44085 18.4497 9.55806 18.5669C9.67527 18.6842 9.83424 18.75 10 18.75C10.1658 18.75 10.3247 18.6842 10.4419 18.5669C10.5592 18.4497 10.625 18.2908 10.625 18.125V17.5H12.5V18.125C12.5 18.2908 12.5658 18.4497 12.6831 18.5669C12.8003 18.6842 12.9592 18.75 13.125 18.75C13.2908 18.75 13.4497 18.6842 13.5669 18.5669C13.6842 18.4497 13.75 18.2908 13.75 18.125V17.5H15C15.6628 17.4993 16.2983 17.2357 16.767 16.767C17.2357 16.2983 17.4993 15.6628 17.5 15V13.75H18.125C18.2908 13.75 18.4497 13.6842 18.5669 13.5669C18.6842 13.4497 18.75 13.2908 18.75 13.125C18.75 12.9592 18.6842 12.8003 18.5669 12.6831C18.4497 12.5658 18.2908 12.5 18.125 12.5H17.5V10.625H18.125C18.2908 10.625 18.4497 10.5592 18.5669 10.4419C18.6842 10.3247 18.75 10.1658 18.75 10C18.75 9.83424 18.6842 9.67527 18.5669 9.55806C18.4497 9.44085 18.2908 9.375 18.125 9.375H17.5V7.5H18.125ZM15 13.75C15 14.0815 14.8683 14.3995 14.6339 14.6339C14.3995 14.8683 14.0815 15 13.75 15H6.25C5.91848 15 5.60054 14.8683 5.36612 14.6339C5.1317 14.3995 5 14.0815 5 13.75V6.25C5 5.91848 5.1317 5.60054 5.36612 5.36612C5.60054 5.1317 5.91848 5 6.25 5H13.75C14.0815 5 14.3995 5.1317 14.6339 5.36612C14.8683 5.60054 15 5.91848 15 6.25V13.75Z" fill="black"/>
</svg>
