<svg viewBox="0 0 20 20" fill="none" xmlns="http://www.w3.org/2000/svg">
<g clip-path="url(#clip0_7_326)">
<path d="M8.87703 19.9353C8.57969 19.8999 8.26781 19.8541 8.18422 19.8334C8.0612 19.8043 7.93746 19.7782 7.81313 19.7553C7.67113 19.7278 7.53024 19.6948 7.39078 19.6564C6.74312 19.4708 6.69672 19.4556 6.20844 19.2559C5.75922 19.0728 4.93156 18.645 4.64844 18.4503C4.57094 18.3966 4.49844 18.3533 4.48734 18.3533C4.47641 18.3533 4.29516 18.2258 4.08453 18.07C2.74547 17.0789 1.74016 15.8758 1.01375 14.3939C0.88875 14.1394 0.786719 13.9136 0.786719 13.8924C0.786719 13.8714 0.764219 13.8134 0.736719 13.7647C0.68 13.6633 0.599219 13.4449 0.534063 13.2191C0.506048 13.1231 0.473459 13.0286 0.436406 12.9358C0.405937 12.8639 0.381406 12.7764 0.381406 12.7411C0.381406 12.7056 0.350937 12.5903 0.31375 12.4841C0.276562 12.3786 0.246562 12.2541 0.246562 12.2075C0.246562 12.1613 0.217344 12.0013 0.18125 11.8519C0.0934375 11.4831 0 10.528 0 9.99266C0 9.45798 0.0934375 8.50282 0.18125 8.13423C0.217187 7.9847 0.246562 7.82173 0.246562 7.77173C0.246562 7.72157 0.269219 7.62329 0.296562 7.55298C0.324688 7.48298 0.360625 7.3572 0.377187 7.2736C0.394375 7.19001 0.433437 7.04595 0.465156 6.95251L0.557344 6.68282C0.625 6.48079 0.687813 6.30985 0.717812 6.24329C0.735 6.2061 0.802031 6.05423 0.867344 5.90579C0.972969 5.66595 1.19937 5.2136 1.33172 4.97688C1.38 4.89016 1.39828 4.86141 1.65953 4.45313C2.07344 3.80501 2.78078 2.9986 3.43922 2.42376C3.67125 2.2211 4.44641 1.63266 4.48125 1.63266C4.49094 1.63266 4.56406 1.58876 4.64422 1.53501C4.85469 1.39407 5.06109 1.27438 5.33016 1.13954C5.42674 1.09177 5.52238 1.04213 5.61703 0.990633C5.66156 0.965009 5.74516 0.926571 6.17437 0.734383C6.26891 0.692196 6.37078 0.653759 6.66438 0.551102C6.72906 0.528602 6.85906 0.480946 6.95188 0.446102C7.04531 0.411415 7.15516 0.382665 7.19609 0.382665C7.23641 0.382665 7.3425 0.35454 7.43172 0.319852C7.52078 0.285009 7.6825 0.245321 7.79172 0.231884C7.90047 0.219071 8.045 0.188602 8.11281 0.164696C8.18 0.141571 8.36438 0.111571 8.52234 0.0982898C8.72823 0.0796886 8.93357 0.0554608 9.13813 0.0256335C9.55813 -0.035929 10.4713 -0.035929 10.8869 0.0256335C11.0832 0.0538045 11.2802 0.0769891 11.4777 0.0951648C11.6266 0.107509 11.8164 0.138602 11.9 0.164227C11.9836 0.189227 12.1283 0.220477 12.2211 0.231884C12.3139 0.244227 12.4702 0.282665 12.5683 0.317977C12.6667 0.353915 12.7783 0.382665 12.8167 0.382665C12.8552 0.382665 12.9345 0.404071 12.9925 0.430946C13.0511 0.457196 13.175 0.501102 13.2684 0.528602C13.3612 0.556727 13.5205 0.612196 13.6231 0.653134C13.725 0.693915 13.8617 0.747665 13.927 0.77204C14.0473 0.817352 14.9364 1.2622 15.0573 1.33798C16.0387 1.95001 16.5436 2.34985 17.2223 3.0511C18.0408 3.89704 18.5841 4.70266 19.137 5.8886C19.1761 5.97235 19.2358 6.09626 19.27 6.16329C19.3036 6.2311 19.3317 6.31048 19.3317 6.33985C19.3317 6.36954 19.3598 6.4586 19.3945 6.53813C19.4886 6.75423 19.5691 7.00016 19.607 7.18813C19.6258 7.28032 19.6606 7.39438 19.6844 7.44141C19.7083 7.48829 19.7362 7.60751 19.7473 7.70516C19.7583 7.80266 19.7906 7.96267 19.8181 8.0597C19.9775 8.61141 20.0567 10.2369 19.9603 10.9558C19.9317 11.1694 19.8994 11.4277 19.8884 11.5295C19.87 11.7041 19.7778 12.1552 19.6991 12.4584L19.6178 12.7795C19.4647 13.3978 19.0863 14.2786 18.6242 15.0934C18.4411 15.4169 17.8272 16.2916 17.7113 16.3941C17.7008 16.4031 17.6489 16.4644 17.5964 16.5289C17.5439 16.5942 17.3755 16.7767 17.223 16.9342C16.5509 17.6281 16.0089 18.0572 15.0573 18.6481C14.9445 18.7183 13.9875 19.1858 13.8086 19.2584C13.7158 19.2956 13.5608 19.3584 13.4644 19.3975C13.3686 19.4361 13.2617 19.4684 13.2281 19.4691C13.1945 19.4695 13.1061 19.4995 13.0316 19.5355C12.9572 19.5714 12.8625 19.6014 12.8205 19.602C12.7789 19.6027 12.6575 19.632 12.5506 19.6674C12.4439 19.7033 12.2955 19.7419 12.2209 19.7533C12.1466 19.765 11.9873 19.7967 11.8664 19.8236C11.7456 19.8505 11.3805 19.903 11.0559 19.9402C10.332 20.0246 9.60059 20.023 8.87703 19.9353ZM9.61187 17.9822C9.65875 17.9456 9.70703 17.8728 9.71984 17.8217C9.74797 17.7088 14.2877 8.60767 14.3731 8.4936C14.4452 8.3972 14.4519 8.24282 14.3859 8.18845C14.3512 8.15923 13.9166 8.15001 12.7563 8.15188C11.8859 8.15376 11.1542 8.15438 11.1303 8.15376C11.095 8.15251 11.0877 7.57095 11.0913 5.08001C11.0938 3.38985 11.0858 1.99157 11.0736 1.9722C11.0614 1.95251 11.0138 1.93673 10.9673 1.93673C10.902 1.93673 10.8716 1.96485 10.8314 2.06298C10.7556 2.24548 10.5463 2.65985 9.52703 4.63876C9.31532 5.04943 9.10412 5.46037 8.89344 5.87157C8.71281 6.22501 8.42781 6.77985 8.26109 7.10438C7.81234 7.97677 7.36453 8.84963 6.91766 9.72298C6.14687 11.2286 6.05359 11.4081 6.02047 11.4478C5.95641 11.5253 5.92156 11.7041 5.95766 11.7713C5.99047 11.8328 6.05594 11.8353 7.68313 11.8328C8.61328 11.8317 9.38047 11.8366 9.38844 11.8438C9.40984 11.8658 9.40187 17.6734 9.37984 17.8119C9.36531 17.9028 9.375 17.9509 9.41656 17.9925C9.48844 18.0645 9.50812 18.0639 9.61187 17.9822Z" fill="#049688"/>
</g>
<defs>
<clipPath id="clip0_7_326">
<rect width="20" height="20" fill="white"/>
</clipPath>
</defs>
</svg>
