<svg width="26" height="27" viewBox="0 0 26 27" fill="none" xmlns="http://www.w3.org/2000/svg">
<rect width="24" height="24" transform="translate(0 0.75)" fill="white"/>
<path d="M10.5964 19.8962C10.5964 19.9727 10.5084 20.0339 10.3974 20.0339C10.2712 20.0454 10.1832 19.9842 10.1832 19.8962C10.1832 19.8197 10.2712 19.7585 10.3821 19.7585C10.4969 19.747 10.5964 19.8082 10.5964 19.8962ZM9.40666 19.724C9.37988 19.8005 9.45639 19.8885 9.57116 19.9115C9.67062 19.9497 9.78538 19.9115 9.80833 19.835C9.83128 19.7585 9.7586 19.6705 9.64384 19.636C9.54438 19.6093 9.43344 19.6475 9.40666 19.724ZM11.0975 19.659C10.9866 19.6858 10.9101 19.7585 10.9215 19.8464C10.933 19.923 11.0325 19.9727 11.1472 19.9459C11.2582 19.9191 11.3347 19.8464 11.3232 19.7699C11.3117 19.6973 11.2084 19.6475 11.0975 19.659ZM13.6146 5C8.30877 5 4.25 9.02816 4.25 14.334C4.25 18.5764 6.92014 22.2067 10.7341 23.4844C11.2237 23.5724 11.3959 23.2702 11.3959 23.0215C11.3959 22.7844 11.3844 21.4761 11.3844 20.6727C11.3844 20.6727 8.70661 21.2465 8.14427 19.5328C8.14427 19.5328 7.70818 18.4196 7.08081 18.1327C7.08081 18.1327 6.20479 17.5321 7.14201 17.5435C7.14201 17.5435 8.09454 17.6201 8.61863 18.5305C9.45639 20.0071 10.8603 19.5825 11.4074 19.33C11.4953 18.7179 11.744 18.2933 12.0194 18.0408C9.88101 17.8037 7.72348 17.4938 7.72348 13.8138C7.72348 12.7618 8.01421 12.2339 8.62628 11.5606C8.52682 11.3119 8.20166 10.2867 8.72574 8.96313C9.52525 8.71448 11.3653 9.99599 11.3653 9.99599C12.1304 9.78177 12.9528 9.67083 13.7676 9.67083C14.5825 9.67083 15.4049 9.78177 16.17 9.99599C16.17 9.99599 18.01 8.71065 18.8095 8.96313C19.3336 10.2906 19.0085 11.3119 18.909 11.5606C19.5211 12.2377 19.896 12.7656 19.896 13.8138C19.896 17.5053 17.6428 17.7998 15.5044 18.0408C15.8563 18.3431 16.1547 18.9169 16.1547 19.8158C16.1547 21.105 16.1432 22.7002 16.1432 23.0139C16.1432 23.2625 16.3192 23.5647 16.805 23.4768C20.6304 22.2067 23.2241 18.5764 23.2241 14.334C23.2241 9.02816 18.9205 5 13.6146 5ZM7.96831 18.1939C7.91857 18.2321 7.93005 18.3201 7.99508 18.3928C8.05629 18.454 8.14427 18.4808 8.194 18.431C8.24374 18.3928 8.23226 18.3048 8.16723 18.2321C8.10602 18.1709 8.01804 18.1441 7.96831 18.1939ZM7.55516 17.884C7.52838 17.9337 7.56664 17.9949 7.64314 18.0332C7.70435 18.0714 7.78086 18.06 7.80764 18.0064C7.83442 17.9567 7.79616 17.8955 7.71965 17.8572C7.64314 17.8343 7.58194 17.8457 7.55516 17.884ZM8.7946 19.2459C8.73339 19.2956 8.75634 19.4103 8.84433 19.483C8.93231 19.571 9.04325 19.5825 9.09298 19.5213C9.14271 19.4716 9.11976 19.3568 9.04325 19.2841C8.95909 19.1961 8.84433 19.1846 8.7946 19.2459ZM8.3585 18.6835C8.29729 18.7218 8.29729 18.8212 8.3585 18.9092C8.4197 18.9972 8.52299 19.0355 8.57272 18.9972C8.63393 18.9475 8.63393 18.848 8.57272 18.76C8.51917 18.672 8.4197 18.6338 8.3585 18.6835Z" fill="black" fill-opacity="0.9"/>
</svg>
