<svg viewBox="0 0 24 24" fill="none" xmlns="http://www.w3.org/2000/svg">
<rect width="24" height="24" transform="translate(0 0.5)" fill="white"/>
<path d="M9.0441 17.8141C9.0441 17.8861 8.96129 17.9437 8.85688 17.9437C8.73806 17.9545 8.65525 17.8969 8.65525 17.8141C8.65525 17.742 8.73806 17.6844 8.84247 17.6844C8.95049 17.6736 9.0441 17.7312 9.0441 17.8141ZM7.92437 17.652C7.89917 17.724 7.97118 17.8069 8.07919 17.8285C8.1728 17.8645 8.28081 17.8285 8.30242 17.7564C8.32402 17.6844 8.25561 17.6016 8.1476 17.5692C8.05399 17.544 7.94958 17.58 7.92437 17.652ZM9.51575 17.5908C9.41134 17.616 9.33933 17.6844 9.35013 17.7673C9.36093 17.8393 9.45454 17.8861 9.56255 17.8609C9.66696 17.8357 9.73897 17.7673 9.72817 17.6952C9.71737 17.6268 9.62016 17.58 9.51575 17.5908ZM11.8848 3.79413C6.89106 3.79413 3.07104 7.58534 3.07104 12.5791C3.07104 16.5719 5.58412 19.9887 9.17371 21.1912C9.63456 21.274 9.79658 20.9896 9.79658 20.7556C9.79658 20.5324 9.78578 19.301 9.78578 18.5449C9.78578 18.5449 7.2655 19.085 6.73624 17.472C6.73624 17.472 6.3258 16.4243 5.73534 16.1543C5.73534 16.1543 4.91085 15.589 5.79294 15.5998C5.79294 15.5998 6.68944 15.6718 7.18269 16.5287C7.97118 17.9185 9.29252 17.5188 9.80738 17.2812C9.89019 16.7051 10.1242 16.3055 10.3834 16.0679C8.37082 15.8446 6.3402 15.553 6.3402 12.0894C6.3402 11.0993 6.61383 10.6025 7.18989 9.9688C7.09628 9.73478 6.79025 8.76987 7.2835 7.52413C8.03599 7.29011 9.76777 8.49624 9.76777 8.49624C10.4879 8.29462 11.2619 8.19021 12.0288 8.19021C12.7957 8.19021 13.5698 8.29462 14.2899 8.49624C14.2899 8.49624 16.0217 7.28651 16.7741 7.52413C17.2674 8.77347 16.9614 9.73478 16.8677 9.9688C17.4438 10.6061 17.7967 11.1029 17.7967 12.0894C17.7967 15.5638 15.676 15.841 13.6634 16.0679C13.9946 16.3523 14.2755 16.8924 14.2755 17.7384C14.2755 18.9518 14.2647 20.4531 14.2647 20.7484C14.2647 20.9824 14.4303 21.2668 14.8875 21.184C18.4879 19.9887 20.929 16.5719 20.929 12.5791C20.929 7.58534 16.8786 3.79413 11.8848 3.79413ZM6.57063 16.2119C6.52382 16.2479 6.53462 16.3307 6.59583 16.3991C6.65344 16.4567 6.73624 16.4819 6.78305 16.4351C6.82985 16.3991 6.81905 16.3163 6.75785 16.2479C6.70024 16.1903 6.61743 16.1651 6.57063 16.2119ZM6.18178 15.9202C6.15658 15.9671 6.19259 16.0247 6.26459 16.0607C6.3222 16.0967 6.39421 16.0859 6.41941 16.0355C6.44461 15.9887 6.40861 15.9311 6.3366 15.895C6.26459 15.8734 6.20699 15.8842 6.18178 15.9202ZM7.34831 17.202C7.29071 17.2488 7.31231 17.3568 7.39512 17.4252C7.47793 17.508 7.58234 17.5188 7.62914 17.4612C7.67595 17.4144 7.65434 17.3064 7.58234 17.238C7.50313 17.1552 7.39512 17.1444 7.34831 17.202ZM6.93787 16.6727C6.88026 16.7087 6.88026 16.8023 6.93787 16.8852C6.99547 16.968 7.09268 17.004 7.13949 16.968C7.19709 16.9212 7.19709 16.8275 7.13949 16.7447C7.08908 16.6619 6.99547 16.6259 6.93787 16.6727Z" fill="black" fill-opacity="0.9"/>
</svg>
