<svg xmlns="http://www.w3.org/2000/svg" viewBox="0 0 24 24" fill="none">
  <path d="M12.6319 8.70475C10.183 8.70475 8.20767 10.6805 8.20767 13.13C8.20767 15.5795 10.183 17.5552 12.6319 17.5552C15.0809 17.5552 17.0562 15.5795 17.0562 13.13C17.0562 10.6805 15.0809 8.70475 12.6319 8.70475ZM12.6319 16.007C11.0494 16.007 9.75558 14.7168 9.75558 13.13C9.75558 11.5432 11.0455 10.253 12.6319 10.253C14.2183 10.253 15.5083 11.5432 15.5083 13.13C15.5083 14.7168 14.2145 16.007 12.6319 16.007ZM18.2691 8.52374C18.2691 9.0976 17.807 9.55591 17.2372 9.55591C16.6634 9.55591 16.2052 9.09374 16.2052 8.52374C16.2052 7.95373 16.6673 7.49157 17.2372 7.49157C17.807 7.49157 18.2691 7.95373 18.2691 8.52374ZM21.1994 9.57132C21.1339 8.18867 20.8182 6.96393 19.8055 5.95486C18.7966 4.9458 17.5722 4.62998 16.1898 4.56066C14.7651 4.47978 10.4949 4.47978 9.07019 4.56066C7.6917 4.62613 6.46723 4.94195 5.45454 5.95101C4.44185 6.96007 4.12996 8.18482 4.06065 9.56747C3.97978 10.9925 3.97978 15.2637 4.06065 16.6887C4.1261 18.0713 4.44185 19.2961 5.45454 20.3051C6.46723 21.3142 7.68784 21.63 9.07019 21.6993C10.4949 21.7802 14.7651 21.7802 16.1898 21.6993C17.5722 21.6339 18.7966 21.3181 19.8055 20.3051C20.8143 19.2961 21.13 18.0713 21.1994 16.6887C21.2802 15.2637 21.2802 10.9963 21.1994 9.57132ZM19.3588 18.2177C19.0585 18.9726 18.477 19.5541 17.7185 19.8584C16.5826 20.309 13.8872 20.205 12.6319 20.205C11.3767 20.205 8.67743 20.3051 7.54538 19.8584C6.79067 19.558 6.20924 18.9764 5.90505 18.2177C5.45454 17.0815 5.5585 14.3856 5.5585 13.13C5.5585 11.8744 5.45839 9.17462 5.90505 8.04232C6.20539 7.28744 6.78682 6.70588 7.54538 6.40162C8.68128 5.95101 11.3767 6.055 12.6319 6.055C13.8872 6.055 16.5864 5.95486 17.7185 6.40162C18.4732 6.70203 19.0546 7.28359 19.3588 8.04232C19.8093 9.17847 19.7053 11.8744 19.7053 13.13C19.7053 14.3856 19.8093 17.0854 19.3588 18.2177Z" fill="black" fill-opacity="0.9"/>
</svg>