<svg viewBox="0 0 24 24" fill="none" xmlns="http://www.w3.org/2000/svg">
<path d="M11.3077 16.077H7.5385C6.28283 16.077 5.2125 15.6345 4.3275 14.7495C3.4425 13.8647 3 12.7945 3 11.539C3 10.2835 3.4425 9.21317 4.3275 8.328C5.2125 7.44267 6.28283 7 7.5385 7H11.3077V8.5H7.5385C6.69867 8.5 5.98233 8.7965 5.3895 9.3895C4.7965 9.9825 4.5 10.6988 4.5 11.5385C4.5 12.3782 4.7965 13.0945 5.3895 13.6875C5.98233 14.2805 6.69867 14.577 7.5385 14.577H11.3077V16.077ZM8.75 12.2885V10.7885H16.25V12.2885H8.75ZM13.6923 16.077V14.577H17.4615C18.3013 14.577 19.0177 14.2805 19.6105 13.6875C20.2035 13.0945 20.5 12.3782 20.5 11.5385C20.5 10.6988 20.2035 9.9825 19.6105 9.3895C19.0177 8.7965 18.3013 8.5 17.4615 8.5H13.6923V7H17.4615C18.7172 7 19.7875 7.4425 20.6725 8.3275C21.5575 9.21233 22 10.2825 22 11.538C22 12.7935 21.5575 13.8638 20.6725 14.749C19.7875 15.6343 18.7172 16.077 17.4615 16.077H13.6923Z" fill="black" fill-opacity="0.9"/>
</svg>
