<svg viewBox="0 0 24 24" fill="none" xmlns="http://www.w3.org/2000/svg">
<mask id="mask0_58_172" style="mask-type:alpha" maskUnits="userSpaceOnUse" x="0" y="0" width="24" height="25">
<rect y="0.5" width="24" height="24" fill="#D9D9D9"/>
</mask>
<g mask="url(#mask0_58_172)">
<path d="M4.30775 20C3.80258 20 3.375 19.825 3.025 19.475C2.675 19.125 2.5 18.6974 2.5 18.1923V6.80775C2.5 6.30258 2.675 5.875 3.025 5.525C3.375 5.175 3.80258 5 4.30775 5H19.6923C20.1974 5 20.625 5.175 20.975 5.525C21.325 5.875 21.5 6.30258 21.5 6.80775V18.1923C21.5 18.6974 21.325 19.125 20.975 19.475C20.625 19.825 20.1974 20 19.6923 20H4.30775ZM12 13.0577L4 7.94225V18.1923C4 18.2821 4.02883 18.3558 4.0865 18.4135C4.14417 18.4712 4.21792 18.5 4.30775 18.5H19.6923C19.7821 18.5 19.8558 18.4712 19.9135 18.4135C19.9712 18.3558 20 18.2821 20 18.1923V7.94225L12 13.0577ZM12 11.5L19.8463 6.5H4.15375L12 11.5ZM4 7.94225V6.5V18.1923C4 18.2821 4.02883 18.3558 4.0865 18.4135C4.14417 18.4712 4.21792 18.5 4.30775 18.5H4V7.94225Z" fill="#1C1B1F"/>
</g>
</svg>
