<svg viewBox="0 0 20 8" fill="none" xmlns="http://www.w3.org/2000/svg">
<g clip-path="url(#clip0_10_46)">
<path d="M7.55171 0.585358L3.6 7.40877H0L3.08537 2.08097C3.5639 1.25463 4.75756 0.585358 5.75171 0.585358H7.55171ZM16.38 2.29121C16.38 1.34926 17.1859 0.585358 18.18 0.585358C19.1741 0.585358 19.98 1.34926 19.98 2.29121C19.98 3.23316 19.1741 3.99707 18.18 3.99707C17.1859 3.99707 16.38 3.23316 16.38 2.29121ZM8.22683 0.585358H11.8268L7.87512 7.40877H4.27512L8.22683 0.585358ZM12.4785 0.585358H16.0785L12.9932 5.91316C12.5146 6.73902 11.321 7.40877 10.3268 7.40877H8.52683L12.4785 0.585358Z" fill="black"/>
</g>
<defs>
<clipPath id="clip0_10_46">
<rect width="20" height="6.82927" fill="white" transform="translate(0 0.585358)"/>
</clipPath>
</defs>
</svg>
