<svg viewBox="0 0 20 20" fill="none" xmlns="http://www.w3.org/2000/svg">
<g clip-path="url(#clip0_7_290)">
<path d="M11.7692 0.0625037C11.6289 0.0625037 11.4886 0.0935974 11.3639 0.140316C11.6289 0.311879 11.7692 0.545629 11.8472 0.810629C11.8472 0.841879 11.8628 0.873129 11.8628 0.904222C11.8628 0.935472 11.8784 0.966566 11.8784 0.99766C11.8941 1.44985 11.7536 1.51219 11.6602 1.77719C11.5042 2.12 11.5511 2.49422 11.7381 2.79032C11.7538 2.82157 11.7694 2.86844 11.8005 2.89953C11.5978 1.59016 12.6889 1.40297 12.8916 0.99766C12.9072 0.639222 12.6111 0.405472 12.3772 0.23391C12.1434 0.0935974 11.9563 0.0623474 11.7694 0.0623474L11.7692 0.0625037ZM13.4063 0.342816C13.3906 0.467504 13.4063 0.43641 13.3906 0.498754C13.3906 0.545472 13.3906 0.592191 13.375 0.639066C13.3594 0.685785 13.3594 0.717035 13.3438 0.763754C13.3281 0.810629 13.3127 0.841722 13.297 0.888441C13.2814 0.919691 13.2658 0.950785 13.2502 0.997504C13.2347 1.01313 13.2191 1.04438 13.2036 1.06C13.188 1.07563 13.188 1.0911 13.1723 1.10672C13.1411 1.13797 13.1255 1.18453 13.0944 1.21578L13.0009 1.30938C12.9697 1.34063 12.9384 1.37172 12.9073 1.38719C12.7983 1.46532 12.6736 1.5275 12.5644 1.60547C12.5331 1.63672 12.4864 1.65235 12.4553 1.68344C12.4241 1.71469 12.3928 1.73032 12.3617 1.76141L12.2683 1.85485C12.237 1.8861 12.2058 1.91735 12.1902 1.96407C12.1591 1.99532 12.1434 2.04203 12.1123 2.07313C12.0967 2.12 12.0811 2.1511 12.05 2.19782C12.0344 2.24469 12.0188 2.27594 12.0031 2.3225C11.9875 2.36938 11.972 2.4161 11.972 2.44719C11.972 2.46282 11.972 2.49407 11.9564 2.50969C11.9564 2.52532 11.9564 2.55641 11.9408 2.57203V2.79016C11.9408 2.83703 11.9408 2.86828 11.9564 2.91485C11.9564 2.96172 11.972 2.99297 11.9877 3.03969C12.0033 3.08641 12.0189 3.1175 12.0345 3.16438C12.05 3.19563 12.0656 3.2111 12.0656 3.24235L10.8808 2.79016C10.6854 2.73097 10.4878 2.67901 10.2886 2.63438C10.1794 2.60313 10.0703 2.5875 9.96109 2.55625C9.65179 2.49432 9.33965 2.44754 9.02578 2.4161H8.99453C8.68281 2.38485 8.38672 2.36922 8.075 2.36922C7.84109 2.36922 7.62281 2.38485 7.40469 2.40047C7.09281 2.4161 6.78125 2.46297 6.46938 2.50969L6.23547 2.55641C6.07969 2.58766 5.92375 2.61875 5.76781 2.66547C5.68984 2.6811 5.61203 2.71235 5.53406 2.72797C5.45609 2.75907 5.37813 2.79016 5.31578 2.82141C5.25344 2.85266 5.20672 2.86828 5.14438 2.89938C5.12875 2.89938 5.12875 2.89938 5.11313 2.915C5.06625 2.9461 5.01969 2.96172 4.97281 2.99282C4.95719 2.99282 4.94156 3.00844 4.94156 3.00844C4.87938 3.03969 4.8325 3.07094 4.78578 3.08641C4.75453 3.10203 4.70781 3.11766 4.67672 3.13328C4.66109 3.14875 4.64547 3.14875 4.62984 3.16438C4.58313 3.19563 4.53641 3.2111 4.48953 3.24219C4.44281 3.27344 4.39609 3.28907 4.36484 3.32032C4.33359 3.35141 4.28688 3.36703 4.25578 3.39813C4.25578 3.39813 4.24016 3.39813 4.24016 3.41375C4.20891 3.42938 4.17781 3.46063 4.14672 3.49172L4.13109 3.50735C4.09984 3.52297 4.08422 3.55407 4.05313 3.56969C4.0375 3.56969 4.0375 3.58532 4.02188 3.58532C3.99078 3.60094 3.97516 3.63203 3.94406 3.6475C3.94406 3.66313 3.92844 3.66313 3.92844 3.66313L3.83484 3.75672L3.81922 3.77235L3.72578 3.86578C3.72578 3.86578 3.72578 3.88141 3.71016 3.88141L3.63219 3.95938C3.61656 3.975 3.60094 3.975 3.60094 3.99063L3.5075 4.08407C3.5075 4.09969 3.49188 4.09969 3.49188 4.11532L3.36719 4.23985L3.35156 4.25547C3.27375 4.34907 3.18016 4.42703 3.08672 4.505C2.99313 4.58282 2.89953 4.66078 2.79047 4.73875C2.68141 4.81672 2.58781 4.87907 2.47875 4.94141C2.36953 5.00375 2.26047 5.05047 2.15141 5.09735C2.04219 5.14407 1.93313 5.19078 1.82406 5.22203C1.60578 5.26891 1.3875 5.36235 1.20047 5.37782C1.20047 5.3 1.15359 5.31547 1.10688 5.31547C1.06016 5.3311 1.01344 5.3311 0.982188 5.34672C0.935313 5.36235 0.904219 5.37797 0.8575 5.3936C0.813036 5.40791 0.770996 5.42888 0.732813 5.45578C0.701563 5.48703 0.654844 5.50266 0.62375 5.53391C0.5925 5.565 0.545625 5.5961 0.514531 5.62735C0.483281 5.6586 0.436563 5.68969 0.405469 5.72078C0.374219 5.75203 0.342969 5.78328 0.311875 5.83C0.280625 5.87672 0.249531 5.90782 0.233906 5.95469C0.202813 5.98594 0.187188 6.03266 0.156094 6.07938C0.140469 6.12625 0.109219 6.17282 0.0935938 6.21969L0.046875 6.36C0.03125 6.40672 0.03125 6.43782 0.015625 6.48469V6.50032C0 6.54719 0 6.60938 0 6.64063C0.015625 6.625 0.015625 6.65625 0.015625 6.68735V6.74969C0.015625 6.78094 0.03125 6.81203 0.03125 6.84313C0.046875 6.87438 0.046875 6.90563 0.0625 6.93672C0.0779688 6.96797 0.0935938 6.99907 0.124688 7.03032C0.140313 7.06157 0.171563 7.09266 0.187188 7.12375C0.218281 7.155 0.249375 7.18625 0.280625 7.20172C0.311875 7.23297 0.342969 7.26422 0.374063 7.27969C0.49875 7.38875 0.53 7.42 0.685938 7.51344C0.717188 7.52907 0.732656 7.54469 0.763906 7.56032H0.779531V7.59157C0.779531 7.63813 0.795156 7.66938 0.810625 7.7161C0.82625 7.76297 0.841875 7.80969 0.8575 7.84078L0.904063 7.93438C0.904063 7.95 0.919688 7.95 0.919688 7.96563C0.935313 8.01235 0.966563 8.04344 0.982188 8.07469C1.01328 8.10594 1.02891 8.15266 1.06 8.18375L1.15359 8.27735L1.24703 8.37078H1.26266C1.29391 8.40203 1.325 8.41766 1.35625 8.44891C1.3875 8.48016 1.43422 8.49563 1.46531 8.5111C1.49656 8.52672 1.54328 8.55797 1.59 8.5736C1.62125 8.58922 1.6525 8.60469 1.69906 8.60469C1.69906 8.60469 1.71469 8.60469 1.71469 8.62032C1.73031 8.62032 1.76156 8.63594 1.77719 8.63594C1.76156 8.91641 1.76156 9.18141 1.79281 9.275C1.83938 9.38407 2.07328 9.05672 2.29156 8.69828C2.26031 9.05672 2.24469 9.47766 2.29156 9.60235C2.35391 9.72703 2.65 9.32172 2.93063 8.88516C6.57828 8.04344 9.91422 10.5688 10.2728 14.1386C10.2103 13.5773 9.52438 13.2656 9.19719 13.3436C9.04125 13.7177 8.77625 14.2166 8.35547 14.5127C8.38656 14.1697 8.37109 13.8267 8.30859 13.4839C8.19953 13.9516 7.98125 14.4036 7.66953 14.7777C7.18625 14.8089 6.6875 14.575 6.43797 14.2166C6.42234 14.2009 6.40672 14.1697 6.39125 14.1541C6.37563 14.123 6.36 14.0763 6.34438 14.045C6.32875 14.0138 6.31328 13.967 6.31328 13.9359V13.7489C6.31328 13.7177 6.32891 13.6708 6.34453 13.6397C6.36016 13.6086 6.36016 13.5617 6.37578 13.5306C6.39125 13.4994 6.40688 13.4527 6.43797 13.4216C6.53156 13.172 6.53156 12.9694 6.36 12.8603L6.26656 12.8134C6.25094 12.8134 6.21969 12.798 6.20406 12.798C6.18844 12.798 6.17297 12.7823 6.15734 12.7823C6.12625 12.7667 6.07953 12.7667 6.04828 12.7511C6.01703 12.7355 5.97031 12.7355 5.93922 12.7355C5.90797 12.7355 5.86109 12.72 5.83 12.72H5.75219C5.70531 12.72 5.67406 12.72 5.64297 12.7356C5.61172 12.7356 5.565 12.7513 5.53391 12.7513C5.50266 12.7669 5.45594 12.7669 5.42469 12.7825C5.39359 12.798 5.36234 12.8136 5.31563 12.8291L5.22203 12.8759C4.02172 13.6553 4.73891 15.4947 5.54953 16.0247C5.23766 16.0872 4.92594 16.1494 4.83234 16.2119L4.81672 16.2275C5.035 16.3677 5.26891 16.4769 5.51828 16.5703C5.84563 16.6795 6.20422 16.773 6.36 16.8198C6.78094 16.9133 7.2175 16.9445 7.65391 16.9133C9.92984 16.7573 11.8005 15.0116 12.1433 12.7356C12.1589 12.7825 12.1589 12.8291 12.1745 12.8759C12.1902 12.9694 12.2058 13.063 12.2214 13.172C12.237 13.2189 12.237 13.2656 12.237 13.3123V13.328C12.237 13.3748 12.2525 13.4216 12.2525 13.4683C12.2525 13.5306 12.2681 13.5773 12.2681 13.6397V14.2944C12.2681 14.3413 12.2525 14.3725 12.2525 14.4192V14.4659C12.2525 14.5128 12.2369 14.5595 12.2369 14.6219C12.2213 14.6686 12.2213 14.7153 12.2056 14.7622V14.7778C12.19 14.8245 12.19 14.8713 12.1745 14.918V14.9336C12.1589 14.9805 12.1589 15.0272 12.1433 15.0739V15.0895L12.0966 15.2298V15.2455C12.0809 15.2922 12.0653 15.3545 12.0498 15.4013C12.0342 15.4481 12.0186 15.4948 11.9873 15.5572C11.9719 15.6039 11.9563 15.6663 11.9252 15.713C11.9095 15.7598 11.8783 15.8066 11.8627 15.8689C11.8472 15.9158 11.8159 15.9625 11.8005 16.0092C11.8005 16.0248 11.7848 16.0405 11.7848 16.0405C11.7848 16.0405 11.7848 16.0561 11.7692 16.0561C11.4419 16.7263 10.9431 17.3186 10.3195 17.7863C10.2727 17.8175 10.2416 17.8488 10.1948 17.8798C10.1792 17.8955 10.1636 17.8955 10.1636 17.9111C10.1323 17.9422 10.0856 17.9578 10.0545 17.9889L10.0702 18.0202C10.148 18.0045 10.2105 18.0045 10.2883 17.9889C10.4286 17.9733 10.5533 17.942 10.6936 17.9109C10.7248 17.9109 10.7717 17.8953 10.8028 17.8797C10.8341 17.8797 10.8495 17.8641 10.8806 17.8641C10.9117 17.8641 10.9588 17.8486 10.9898 17.8486C11.0211 17.833 11.0522 17.833 11.0833 17.8173C11.5978 17.6928 12.0966 17.5213 12.5798 17.3186C11.7536 18.4409 10.6625 19.3452 9.38422 19.9373C9.97656 19.8906 10.5689 19.7972 11.1456 19.6256C13.2166 19.0175 14.9642 17.6172 16.0092 15.7286C15.7911 16.9133 15.3233 18.0513 14.6219 19.0489C15.1208 18.7216 15.5728 18.3317 15.9938 17.9109C17.1472 16.7106 17.9109 15.1673 18.1605 13.5306C18.332 14.3413 18.3944 15.183 18.3164 16.0092C22.042 10.8183 18.6281 5.44032 17.1941 4.02172C17.1941 4.0061 17.1784 4.0061 17.1784 3.99047C17.1784 4.05297 17.1784 4.11516 17.1628 4.17766C17.1472 4.30235 17.1316 4.41141 17.1159 4.52047C17.0848 4.62969 17.0538 4.75438 17.0225 4.86344C16.9913 4.97266 16.9445 5.08172 16.8978 5.19078C16.8509 5.3 16.8042 5.40907 16.7419 5.50266C16.6795 5.59625 16.6172 5.70532 16.5548 5.79875C16.4925 5.89235 16.4145 5.98579 16.3366 6.07938C16.2588 6.17297 16.1808 6.25078 16.0872 6.34438C16.0403 6.39125 15.9938 6.43797 15.9314 6.46907C15.8845 6.50032 15.8533 6.53157 15.8066 6.57813C15.7131 6.65625 15.6195 6.71844 15.5105 6.78078C15.4169 6.84328 15.3078 6.90563 15.1988 6.95235L14.8713 7.09266C14.7622 7.13938 14.6531 7.17063 14.5439 7.20172C14.4348 7.23297 14.3102 7.26422 14.2009 7.27969C14.0763 7.29532 13.9672 7.31094 13.8581 7.32657C13.78 7.32657 13.6866 7.34203 13.6086 7.34203C13.4839 7.34203 13.3748 7.32641 13.2658 7.32641C13.1409 7.31078 13.0319 7.29516 12.9228 7.27953C12.8046 7.26516 12.689 7.23368 12.5798 7.1861C12.6889 7.17047 12.8136 7.17047 12.9228 7.13938C13.0475 7.12375 13.1566 7.0925 13.2658 7.06141C13.3748 7.03016 13.4995 6.99907 13.5931 6.95235L13.9205 6.81203C14.0295 6.76516 14.1231 6.70297 14.2322 6.64063C14.3258 6.57813 14.4348 6.50032 14.5284 6.43797C14.6219 6.35985 14.7155 6.28203 14.7934 6.20407C14.8869 6.1261 14.9648 6.03266 15.0428 5.95469C15.1208 5.8611 15.1988 5.76766 15.2611 5.67407C15.2767 5.65844 15.2767 5.64282 15.2923 5.62719C15.3389 5.54938 15.4013 5.45578 15.4481 5.37797C15.5063 5.27723 15.5583 5.17309 15.6039 5.0661C15.6508 4.95703 15.6977 4.84782 15.7288 4.73875L15.8222 4.41141C15.8378 4.28672 15.8691 4.17766 15.8691 4.06844C15.8847 3.94375 15.8847 3.83469 15.8847 3.72547C15.8847 3.64766 15.8847 3.55407 15.8691 3.4761C15.8534 3.35141 15.8378 3.24235 15.8222 3.13313C15.8066 3.00844 15.7753 2.89938 15.7442 2.79016C15.713 2.6811 15.6663 2.57203 15.6352 2.46282C15.5883 2.35375 15.5416 2.24469 15.4948 2.1511C15.4325 2.04203 15.3858 1.94844 15.3234 1.83938C15.2609 1.74578 15.1831 1.65219 15.1208 1.55875C15.0428 1.46516 14.9648 1.38719 14.8869 1.29375C14.8402 1.24688 14.7934 1.20016 14.7466 1.16907C14.5128 0.982035 14.2789 0.826097 14.0295 0.67016C13.9983 0.654535 13.9672 0.63891 13.9205 0.623285C13.7178 0.452035 13.562 0.40516 13.4063 0.342816Z" fill="#DF234F"/>
</g>
<defs>
<clipPath id="clip0_7_290">
<rect width="20" height="20" fill="white"/>
</clipPath>
</defs>
</svg>
