<svg viewBox="0 0 16 17" fill="none" xmlns="http://www.w3.org/2000/svg">
<path d="M3.33337 13.1666H4.17437L10.9987 6.34231L10.1577 5.50131L3.33337 12.3256V13.1666ZM2.33337 14.1666V11.9103L11.127 3.12048C11.2278 3.02892 11.3391 2.9582 11.4609 2.90831C11.5828 2.85831 11.7105 2.83331 11.8442 2.83331C11.9779 2.83331 12.1073 2.85704 12.2325 2.90448C12.3579 2.95192 12.4688 3.02737 12.5654 3.13081L13.3795 3.95515C13.483 4.0517 13.5567 4.16281 13.6007 4.28848C13.6447 4.41415 13.6667 4.53981 13.6667 4.66548C13.6667 4.79959 13.6438 4.92754 13.598 5.04931C13.5523 5.1712 13.4794 5.28254 13.3795 5.38331L4.58971 14.1666H2.33337ZM10.5709 5.92915L10.1577 5.50131L10.9987 6.34231L10.5709 5.92915Z" fill="#42B7F7" fill-opacity="0.9"/>
</svg>
