<svg viewBox="0 0 24 24" fill="none" xmlns="http://www.w3.org/2000/svg">
<mask id="mask0_7_225" style="mask-type:alpha" maskUnits="userSpaceOnUse" x="0" y="0" width="24" height="25">
<rect y="0.5" width="24" height="24" fill="#D9D9D9"/>
</mask>
<g mask="url(#mask0_7_225)">
<path d="M19.4402 21C17.5557 21 15.6625 20.5618 13.7605 19.6855C11.8587 18.8092 10.1113 17.573 8.51825 15.977C6.92542 14.3808 5.69083 12.6333 4.8145 10.7345C3.93817 8.83583 3.5 6.94425 3.5 5.05975C3.5 4.75692 3.6 4.50458 3.8 4.30275C4 4.10092 4.25 4 4.55 4H7.8115C8.064 4 8.28675 4.08242 8.47975 4.24725C8.67275 4.41192 8.7955 4.61542 8.848 4.85775L9.42125 7.8C9.46092 8.073 9.45258 8.30758 9.39625 8.50375C9.33975 8.69992 9.23842 8.86467 9.09225 8.998L6.78275 11.2462C7.15442 11.9269 7.57908 12.5708 8.05675 13.178C8.53425 13.785 9.05125 14.3648 9.60775 14.9173C10.1564 15.4661 10.7397 15.9757 11.3577 16.4462C11.9757 16.9167 12.6431 17.3546 13.3598 17.7598L15.6038 15.4963C15.7603 15.3334 15.9498 15.2193 16.1723 15.1538C16.3946 15.0884 16.6257 15.0724 16.8655 15.1058L19.6423 15.6713C19.8948 15.7379 20.1008 15.8667 20.2605 16.0577C20.4202 16.2487 20.5 16.4654 20.5 16.7078V19.95C20.5 20.25 20.3991 20.5 20.1973 20.7C19.9954 20.9 19.7431 21 19.4402 21ZM6.073 9.827L7.85775 8.11925C7.88975 8.09358 7.91058 8.05833 7.92025 8.0135C7.92992 7.96867 7.92833 7.927 7.9155 7.8885L7.48075 5.65375C7.46792 5.60258 7.4455 5.56417 7.4135 5.5385C7.3815 5.51283 7.33983 5.5 7.2885 5.5H5.15C5.1115 5.5 5.07942 5.51283 5.05375 5.5385C5.02825 5.56417 5.0155 5.59625 5.0155 5.63475C5.06667 6.31808 5.1785 7.01225 5.351 7.71725C5.52333 8.42242 5.764 9.12567 6.073 9.827ZM14.773 18.4693C15.4358 18.7783 16.1272 19.0145 16.847 19.178C17.567 19.3413 18.2397 19.4384 18.8652 19.4693C18.9037 19.4693 18.9358 19.4564 18.9615 19.4307C18.9872 19.4051 19 19.373 19 19.3345V17.2308C19 17.1794 18.9872 17.1377 18.9615 17.1058C18.9358 17.0738 18.8974 17.0513 18.8462 17.0385L16.7462 16.6115C16.7077 16.5987 16.6741 16.5971 16.6453 16.6067C16.6164 16.6164 16.5859 16.6372 16.5538 16.6692L14.773 18.4693Z" fill="#1C1B1F"/>
</g>
</svg>
