<svg viewBox="0 0 20 20" fill="none" xmlns="http://www.w3.org/2000/svg">
  <g clip-path="url(#clip0_7_298)">
    <path
      d="M14.6576 14.3925C14.7802 13.3717 14.7435 13.2219 15.5038 13.3874L15.6968 13.4042C16.2815 13.4308 17.0463 13.3102 17.4957 13.1014C18.463 12.6525 19.0365 11.9033 18.0829 12.1C15.9072 12.5489 15.7577 11.8122 15.7577 11.8122C18.0551 8.40361 19.0154 4.07657 18.1863 3.01736C15.9254 0.128449 12.0118 1.49454 11.9463 1.52986L11.9254 1.53376C11.4955 1.44454 11.0144 1.39126 10.474 1.38251C9.48943 1.36626 8.7424 1.64064 8.17568 2.07032C8.17568 2.07032 1.19396 -0.806082 1.51881 5.68767C1.58787 7.06907 3.49881 16.1405 5.77818 13.4005C6.61131 12.3986 7.41631 11.5514 7.41631 11.5514C7.81599 11.8169 8.29474 11.9525 8.79662 11.9038L8.83553 11.8706C8.82334 11.995 8.82865 12.1167 8.85099 12.2608C8.26396 12.9169 8.43646 13.032 7.26256 13.2736C6.07474 13.5183 6.77256 13.9541 7.22802 14.068C7.78037 14.2061 9.05803 14.4017 9.92146 13.1933L9.88709 13.3311C10.1174 13.5155 10.1019 14.6556 10.1344 15.4702C10.1671 16.2849 10.2216 17.045 10.3877 17.4933C10.5538 17.9414 10.7497 19.0958 12.2926 18.7652C13.5819 18.4895 14.5677 18.0919 14.6576 14.3925Z"
      fill="black" />
    <path
      d="M11.7901 19.5713C11.1078 19.5713 10.6634 19.3073 10.3936 19.0525C9.98621 18.6681 9.82465 18.173 9.72809 17.8772L9.68637 17.7538C9.49199 17.2291 9.42605 16.4736 9.38699 15.5008C9.38105 15.3547 9.37699 15.2042 9.37246 15.0447C9.36918 14.928 9.36512 14.7816 9.35918 14.6284C9.11335 14.7457 8.85241 14.8281 8.58387 14.8734C8.10277 14.9556 7.58559 14.9291 7.04637 14.7942C6.6659 14.6991 6.27059 14.5019 6.04527 14.1973C5.38855 14.7725 4.76215 14.6945 4.4209 14.5806C3.81887 14.3798 3.28012 13.8156 2.77371 12.8561C2.41293 12.1725 2.06402 11.2819 1.73652 10.2088C1.16621 8.34 0.803867 6.37172 0.771679 5.72547C0.670429 3.70281 1.21496 2.25625 2.3898 1.42641C4.24309 0.117345 7.05105 0.887189 8.0748 1.23672C8.76262 0.822189 9.57184 0.62047 10.4862 0.635001C10.9773 0.64297 11.445 0.686095 11.8793 0.763595C12.3325 0.621095 13.2275 0.416564 14.252 0.429376C16.1396 0.451876 17.7039 1.1875 18.7753 2.55672C19.54 3.5336 19.1618 5.585 18.8686 6.72094C18.4557 8.31875 17.7325 10.0181 16.844 11.4975C17.0853 11.4992 17.4348 11.4703 17.9317 11.3677C18.912 11.1653 19.1987 11.6909 19.2765 11.9263C19.5882 12.8703 18.2332 13.5838 17.8106 13.78C17.269 14.0314 16.3861 14.1845 15.6629 14.1514L15.6314 14.1494L15.4414 14.1327L15.4226 14.2911L15.4045 14.4459C15.3559 16.3208 15.0881 17.5081 14.537 18.2927C13.9593 19.1152 13.1565 19.3456 12.4493 19.4972C12.2081 19.5488 11.9889 19.5713 11.7901 19.5713ZM10.3542 12.7477C10.7946 13.1002 10.8332 13.7634 10.8678 15.003C10.8721 15.1577 10.8762 15.3041 10.8817 15.4408C10.8982 15.8548 10.9371 16.8244 11.089 17.2341C11.1104 17.292 11.1296 17.3508 11.15 17.4131C11.3192 17.9313 11.404 18.1911 12.1357 18.0347C12.75 17.903 13.0657 17.7848 13.3129 17.433C13.6721 16.9214 13.8731 15.8923 13.91 14.3744L14.6573 14.3925L13.9151 14.3034L13.937 14.1181C14.0081 13.5072 14.0593 13.0659 14.4676 12.7741C14.7953 12.54 15.1686 12.5627 15.4659 12.6163C15.1392 12.3694 15.0489 12.0798 15.0248 11.9611L14.9625 11.6541L15.1376 11.3942C16.1465 9.89735 16.9784 8.05766 17.4203 6.34672C17.8743 4.58875 17.7359 3.65516 17.5975 3.4786C15.7648 1.13688 12.5868 2.10375 12.255 2.21344L12.1989 2.24375L11.9176 2.2961L11.7736 2.26625C11.3764 2.18375 10.9351 2.13813 10.4621 2.13047C9.71902 2.11797 9.11949 2.2936 8.62793 2.66656L8.28684 2.92516L7.89105 2.76219C7.04543 2.41641 4.56168 1.72125 3.25105 2.64953C2.52355 3.16485 2.19215 4.17453 2.2659 5.65063C2.29027 6.13797 2.62137 7.98281 3.16762 9.77203C3.92246 12.2447 4.6084 13.0661 4.8948 13.1616C4.9448 13.1784 5.07449 13.0777 5.20355 12.9227C5.74168 12.2776 6.29891 11.6486 6.87449 11.0367L7.3073 10.5813L7.83059 10.9289C8.04152 11.0691 8.27418 11.1486 8.51309 11.1636L9.76105 10.0992L9.58027 11.9442C9.57621 11.9856 9.57418 12.042 9.59043 12.1467L9.6448 12.4964L9.40887 12.7602L9.38168 12.7908L10.0673 13.1072L10.3542 12.7477Z"
      fill="black" />
    <path
      d="M18.0828 12.1C15.9071 12.5489 15.7575 11.8122 15.7575 11.8122C18.0549 8.40344 19.0152 4.07626 18.1864 3.01735C15.9255 0.128599 12.0116 1.49469 11.9463 1.53016L11.9252 1.53391C11.4953 1.44469 11.0142 1.39157 10.4735 1.38282C9.48893 1.36672 8.74221 1.64094 8.1755 2.07063C8.1755 2.07063 1.19362 -0.805619 1.51831 5.68797C1.58737 7.06954 3.49831 16.1409 5.77768 13.4009C6.61081 12.3991 7.41565 11.5519 7.41565 11.5519C7.8155 11.8173 8.29409 11.953 8.79581 11.9042L8.83487 11.8711C8.82268 11.9955 8.82831 12.1172 8.8505 12.2613C8.26331 12.9173 8.43581 13.0325 7.2619 13.2741C6.07409 13.5188 6.7719 13.9545 7.22753 14.0684C7.77971 14.2066 9.05753 14.4022 9.92081 13.1938L9.88628 13.3316C10.1164 13.5159 10.278 14.5303 10.251 15.4498C10.2238 16.3694 10.2057 17.0008 10.3871 17.4939C10.5683 17.987 10.7489 19.0964 12.2921 18.7658C13.5814 18.4895 14.2496 17.7734 14.3427 16.5791C14.4086 15.7298 14.5578 15.8555 14.5674 15.0963L14.6872 14.7369C14.8253 13.5858 14.7091 13.2145 15.5036 13.3872L15.6966 13.4041C16.2813 13.4306 17.0464 13.31 17.4957 13.1013C18.4628 12.6527 19.0364 11.9033 18.0828 12.1Z"
      fill="#336791" />
    <path
      d="M11.8681 19.1105C10.5819 19.1105 10.1744 18.0919 10.0077 17.6753C9.76359 17.0648 9.71093 14.6958 9.76531 12.753C9.76612 12.7202 9.7734 12.6879 9.78674 12.658C9.80008 12.6281 9.81921 12.6011 9.84302 12.5785C9.86684 12.556 9.89488 12.5385 9.92552 12.5268C9.95616 12.5152 9.9888 12.5097 10.0216 12.5108C10.0543 12.5117 10.0865 12.519 10.1164 12.5324C10.1463 12.5457 10.1733 12.5648 10.1957 12.5886C10.2182 12.6124 10.2358 12.6404 10.2475 12.671C10.2592 12.7016 10.2647 12.7342 10.2637 12.7669C10.2011 15.0077 10.29 17.0383 10.4706 17.4902C10.7525 18.1947 11.18 18.8109 12.3886 18.552C13.5359 18.3059 13.9656 17.8709 14.157 16.7614C14.3039 15.91 14.5944 13.4878 14.6302 13.0098C14.6325 12.9772 14.6414 12.9453 14.6561 12.9161C14.6708 12.8868 14.6912 12.8608 14.716 12.8394C14.7408 12.818 14.7696 12.8018 14.8007 12.7915C14.8319 12.7813 14.8647 12.7774 14.8973 12.7798C14.9632 12.7848 15.0245 12.8158 15.0676 12.8659C15.1107 12.916 15.1322 12.9811 15.1273 13.047C15.09 13.5447 14.8009 15.9622 14.6484 16.8463C14.4225 18.1567 13.8383 18.7511 12.4931 19.0395C12.2645 19.0884 12.0569 19.1103 11.8681 19.1105ZM4.89375 14.1353C4.78132 14.1349 4.66969 14.1165 4.56312 14.0806C3.72765 13.8019 2.93187 12.4413 2.19781 10.0361C1.63906 8.20531 1.285 6.29437 1.2539 5.67328C1.16187 3.83203 1.63594 2.52937 2.66328 1.80172C4.69562 0.361719 8.11453 1.73297 8.25906 1.79203C8.32029 1.81704 8.36907 1.86535 8.39468 1.92633C8.42029 1.9873 8.42063 2.05596 8.39562 2.11719C8.37061 2.17842 8.32231 2.2272 8.26133 2.25281C8.20035 2.27842 8.13169 2.27876 8.07047 2.25375C8.0375 2.24031 4.75906 0.926875 2.95047 2.20922C2.07203 2.83203 1.66875 3.98922 1.75172 5.64844C1.77781 6.17172 2.10859 8.03672 2.67453 9.89047C3.32984 12.0377 4.07562 13.3925 4.72078 13.6077C4.82203 13.6414 5.13015 13.7441 5.57062 13.2144C6.08429 12.5975 6.6172 11.9969 7.16859 11.4134C7.21473 11.3674 7.27705 11.3413 7.34221 11.3406C7.40737 11.34 7.4702 11.3649 7.51724 11.41C7.56429 11.455 7.59182 11.5168 7.59394 11.5819C7.59606 11.647 7.57261 11.7104 7.52859 11.7584C7.52109 11.7663 6.77125 12.5502 5.95406 13.5333C5.56703 13.9988 5.19609 14.1353 4.89375 14.1353ZM15.742 12.0345C15.6968 12.0345 15.6525 12.0221 15.6138 11.9988C15.575 11.9755 15.5434 11.9421 15.5222 11.9022C15.5009 11.8623 15.491 11.8174 15.4933 11.7722C15.4957 11.7271 15.5102 11.6834 15.5355 11.6459C17.8578 8.19984 18.673 4.03594 17.9748 3.14375C17.0961 2.02094 15.8553 1.43453 14.2867 1.40062C13.1253 1.37562 12.2022 1.67219 12.0512 1.72391L12.0133 1.73937C11.8616 1.78703 11.7452 1.70391 11.7012 1.60672C11.6762 1.55104 11.6724 1.48812 11.6906 1.42983C11.7087 1.37154 11.7476 1.32192 11.7998 1.29031C11.807 1.28609 11.8298 1.27641 11.8669 1.26281C12.1233 1.16891 13.0605 0.887656 14.2212 0.900937C15.9569 0.919375 17.3906 1.58859 18.3672 2.83656C18.8292 3.42703 18.8303 4.78734 18.3702 6.56891C17.9011 8.38531 17.0184 10.3373 15.9487 11.9247C15.9009 11.9961 15.8222 12.0345 15.742 12.0345ZM15.8608 13.6298C15.4642 13.6298 15.1087 13.5739 14.8959 13.4464C14.6772 13.3153 14.6355 13.1372 14.63 13.0427C14.5703 11.9942 15.1487 11.8117 15.4437 11.7284C15.4027 11.6663 15.3442 11.5931 15.2837 11.5177C15.1117 11.3027 14.8761 11.0083 14.6945 10.568C14.6661 10.4992 14.577 10.3394 14.4739 10.1542C13.9147 9.15141 12.7511 7.06469 13.4986 5.99609C13.8445 5.50156 14.5334 5.30688 15.5484 5.41547C15.2498 4.50578 13.828 1.66016 10.4541 1.60484C9.43937 1.58797 8.60718 1.9 7.98187 2.53141C6.58187 3.94531 6.6325 6.50359 6.63328 6.52922C6.63414 6.56195 6.62855 6.59452 6.61682 6.62509C6.60509 6.65566 6.58746 6.68361 6.56492 6.70737C6.54239 6.73112 6.5154 6.7502 6.48549 6.76352C6.45559 6.77684 6.42335 6.78414 6.39062 6.785C6.35789 6.78586 6.32532 6.78027 6.29475 6.76854C6.26418 6.75681 6.23623 6.73918 6.21248 6.71665C6.18872 6.69411 6.16964 6.66712 6.15632 6.63722C6.143 6.60731 6.1357 6.57507 6.13484 6.54234C6.13172 6.42875 6.07953 3.74406 7.62765 2.18047C8.35218 1.44875 9.30593 1.0875 10.4623 1.10641C12.6208 1.14187 14.0102 2.23922 14.7955 3.15344C15.6516 4.14984 16.0712 5.24891 16.1058 5.61578C16.1316 5.88859 15.9358 5.94313 15.8962 5.95125L15.8062 5.95328C14.8102 5.79375 14.1711 5.90453 13.9069 6.28203C13.3383 7.09469 14.4391 9.06859 14.9091 9.91156C15.0291 10.1266 15.1156 10.282 15.1553 10.378C15.3097 10.7523 15.5111 11.0039 15.6728 11.2061C15.8152 11.3839 15.9384 11.5381 15.9825 11.7191C16.003 11.755 16.2934 12.1847 18.017 11.8289C18.4491 11.7398 18.7081 11.8159 18.7873 12.0555C18.9431 12.5266 18.0691 13.0761 17.5852 13.3008C17.1516 13.5023 16.4595 13.6298 15.8608 13.6298ZM15.127 13.0016C15.1817 13.0567 15.4553 13.1519 16.0219 13.1275C16.5256 13.1059 17.0569 12.9964 17.3756 12.8484C17.7833 12.6591 18.0555 12.4473 18.1964 12.3028L18.1183 12.3172C17.0162 12.5447 16.2367 12.5144 15.8014 12.227C15.7722 12.2077 15.744 12.1868 15.717 12.1644C15.6698 12.183 15.6262 12.1952 15.5952 12.2039C15.3483 12.2731 15.093 12.3448 15.127 13.0016ZM8.00797 14.3945C7.73422 14.3945 7.44609 14.3572 7.15187 14.2836C6.84703 14.2073 6.33312 13.9778 6.34093 13.6008C6.34984 13.1778 6.965 13.0509 7.19656 13.0033C8.03312 12.8309 8.08765 12.7619 8.34906 12.4298C8.42531 12.3331 8.52015 12.2127 8.64953 12.0683C8.84156 11.8533 9.0514 11.7444 9.27328 11.7444C9.42781 11.7444 9.55453 11.7967 9.63828 11.8316C9.90515 11.9422 10.1278 12.2097 10.2194 12.5295C10.302 12.8181 10.2625 13.0959 10.1084 13.3117C9.60265 14.02 8.87625 14.3945 8.00797 14.3945ZM6.87953 13.6222C6.95468 13.6803 7.10531 13.758 7.27297 13.7998C7.52781 13.8636 7.775 13.8959 8.00812 13.8959C8.71843 13.8959 9.28875 13.6019 9.70297 13.0219C9.78937 12.9009 9.76343 12.7473 9.74031 12.6666C9.69187 12.4973 9.57156 12.3434 9.44765 12.292C9.38047 12.2642 9.32469 12.243 9.27343 12.243C9.24593 12.243 9.16218 12.243 9.02125 12.4006C8.92399 12.51 8.8305 12.6227 8.74093 12.7384C8.41531 13.1519 8.26609 13.2922 7.29734 13.4917C7.06093 13.5402 6.93968 13.5895 6.87953 13.6222ZM8.79656 12.4722C8.73704 12.4721 8.67952 12.4507 8.63439 12.4119C8.58926 12.3731 8.55949 12.3195 8.55047 12.2606C8.54427 12.2192 8.5401 12.1776 8.53797 12.1358C7.90297 12.1239 7.29031 11.8514 6.82515 11.3661C6.23703 10.7525 5.96937 9.90234 6.09094 9.03375C6.22297 8.09047 6.17359 7.25781 6.14703 6.81047C6.13968 6.68609 6.13437 6.59625 6.13469 6.53406C6.13515 6.45516 6.13672 6.24594 6.83609 5.89141C7.08484 5.76531 7.58359 5.54531 8.12843 5.48891C9.03109 5.39563 9.62609 5.79766 9.80422 6.62109C10.285 8.84422 9.84234 9.8275 9.51906 10.5456C9.4589 10.6794 9.40203 10.8056 9.35656 10.928L9.3164 11.0358C9.14562 11.4938 8.99797 11.8894 9.04328 12.1848C9.04825 12.2172 9.0468 12.2502 9.03901 12.282C9.03122 12.3138 9.01724 12.3438 8.99787 12.3702C8.9785 12.3966 8.95412 12.4189 8.92612 12.4359C8.89812 12.4528 8.86705 12.4641 8.83468 12.4691L8.79656 12.4722ZM6.63484 6.60313L6.64453 6.78109C6.67203 7.24578 6.72328 8.11047 6.58453 9.10297C6.48437 9.81938 6.70312 10.5186 7.185 11.0211C7.56578 11.4183 8.06687 11.6375 8.58187 11.6375H8.5925C8.65015 11.3945 8.74593 11.138 8.84906 10.8616L8.8889 10.7544C8.94031 10.6163 9.00047 10.4825 9.06422 10.3409C9.37531 9.64969 9.76265 8.78922 9.31656 6.72656C9.22828 6.31797 9.01406 6.08156 8.66203 6.00359C7.9389 5.84391 6.86125 6.38781 6.63484 6.60313ZM8.13953 6.49734C8.12703 6.58547 8.30093 6.82078 8.52781 6.85219C8.75422 6.88391 8.94797 6.69984 8.96031 6.61172C8.97265 6.52359 8.7989 6.42641 8.57203 6.39484C8.34531 6.36328 8.15156 6.40922 8.13953 6.49734ZM8.57984 6.93891L8.51625 6.93453C8.37562 6.915 8.23343 6.82641 8.13609 6.69734C8.10187 6.65203 8.04609 6.56422 8.05718 6.48578C8.07297 6.37078 8.21328 6.30188 8.43218 6.30188C8.48109 6.30188 8.53203 6.30547 8.58328 6.31266C8.70297 6.32922 8.81406 6.36375 8.89609 6.40953C9.03828 6.48891 9.04875 6.5775 9.04234 6.62328C9.02484 6.75031 8.82281 6.93891 8.57984 6.93891ZM8.22218 6.51203C8.22922 6.56641 8.3639 6.74578 8.53922 6.77L8.58 6.77281C8.74187 6.77281 8.86281 6.64547 8.87703 6.60375C8.86203 6.57531 8.75797 6.50469 8.56062 6.47719C8.51813 6.47109 8.47527 6.46801 8.43234 6.46797C8.30547 6.46797 8.23812 6.49656 8.22218 6.51203ZM15.0355 6.3175C15.0478 6.40562 14.8741 6.64094 14.6473 6.6725C14.4208 6.70406 14.2269 6.52016 14.2144 6.43203C14.2025 6.34391 14.3762 6.24656 14.6028 6.21516C14.8294 6.18344 15.023 6.22953 15.0355 6.3175ZM14.595 6.7175C14.3769 6.7175 14.1886 6.54781 14.1731 6.43766C14.1552 6.30547 14.3728 6.205 14.5969 6.17391C14.6462 6.16703 14.6952 6.16359 14.7422 6.16359C14.9356 6.16359 15.0637 6.22031 15.0766 6.31188C15.0848 6.37109 15.0394 6.4625 14.9611 6.545C14.9094 6.59922 14.8008 6.69313 14.6528 6.71359L14.595 6.7175ZM14.7423 6.24672C14.6992 6.24672 14.6542 6.25 14.6086 6.25625C14.3834 6.28766 14.2491 6.37797 14.2556 6.42641C14.2631 6.47969 14.4069 6.63453 14.5952 6.63453L14.6416 6.63125C14.7645 6.61422 14.8569 6.53391 14.9009 6.48766C14.9702 6.415 14.9977 6.34656 14.9944 6.32328C14.99 6.29234 14.9069 6.24672 14.7423 6.24672ZM15.3619 11.3784C15.3167 11.3785 15.2724 11.3662 15.2336 11.343C15.1949 11.3197 15.1632 11.2864 15.142 11.2466C15.1207 11.2067 15.1107 11.1618 15.113 11.1167C15.1153 11.0716 15.1298 11.028 15.155 10.9905C15.6859 10.1975 15.5887 9.38891 15.4948 8.60688C15.4547 8.27375 15.4134 7.92922 15.4241 7.59859C15.435 7.25844 15.4783 6.97781 15.52 6.70641C15.5695 6.38484 15.6164 6.08109 15.597 5.72047C15.5953 5.68778 15.6 5.65507 15.6108 5.62419C15.6217 5.59332 15.6386 5.56489 15.6604 5.54053C15.6823 5.51617 15.7087 5.49635 15.7383 5.48221C15.7678 5.46808 15.7998 5.45989 15.8325 5.45813C15.8652 5.45636 15.8979 5.46105 15.9288 5.47193C15.9596 5.48281 15.9881 5.49966 16.0124 5.52153C16.0368 5.54339 16.0566 5.56984 16.0708 5.59936C16.0849 5.62889 16.0931 5.66091 16.0948 5.69359C16.117 6.10578 16.0641 6.44953 16.0128 6.78219C15.9733 7.03891 15.9323 7.30438 15.9225 7.61453C15.913 7.90734 15.9503 8.21828 15.9898 8.54734C16.0898 9.37891 16.2031 10.3214 15.5694 11.2678C15.5465 11.3019 15.5157 11.3298 15.4795 11.3491C15.4433 11.3684 15.4029 11.3785 15.3619 11.3784Z"
      fill="white" />
  </g>
  <defs>
    <clipPath id="clip0_7_298">
      <rect width="20" height="20" fill="white" />
    </clipPath>
  </defs>
</svg>
