<svg  viewBox="0 0 20 20" fill="none" xmlns="http://www.w3.org/2000/svg">
<path d="M9.90488 1.91376C9.24519 1.91688 8.6155 1.97298 8.06113 2.0711C6.42831 2.35954 6.13206 2.96329 6.13206 4.07688V5.54735H9.99034V6.03751H4.68394C3.56269 6.03751 2.58081 6.71142 2.27363 7.99392C1.91925 9.46345 1.90363 10.3806 2.27363 11.9152C2.54784 13.0575 3.20284 13.8713 4.32425 13.8713H5.65097V12.1084C5.65097 10.8349 6.75269 9.71157 8.06128 9.71157H11.9152C12.988 9.71157 13.8443 8.82813 13.8443 7.75095V4.07704C13.8443 3.03126 12.9621 2.24579 11.9152 2.07126C11.2521 1.96095 10.5644 1.91079 9.90488 1.91376ZM7.81831 3.09642C8.21675 3.09642 8.54238 3.4272 8.54238 3.83407C8.54238 4.23923 8.21691 4.56688 7.81831 4.56688C7.41831 4.56688 7.09441 4.23923 7.09441 3.83407C7.09425 3.4272 7.41831 3.09642 7.81831 3.09642Z" fill="url(#paint0_linear_10_224)"/>
<path d="M14.3251 6.03751V7.75095C14.3251 9.07907 13.1989 10.197 11.9148 10.197H8.0609C7.00527 10.197 6.13184 11.1006 6.13184 12.1578V15.832C6.13184 16.8775 7.0409 17.4927 8.0609 17.7925C9.28215 18.1514 10.4534 18.2164 11.9148 17.7925C12.8861 17.5111 13.8439 16.9452 13.8439 15.832V14.3614H9.99012V13.8711H15.7732C16.8945 13.8711 17.3126 13.0891 17.7026 11.915C18.1054 10.7064 18.0881 9.54407 17.7026 7.99376C17.4254 6.87735 16.8962 6.03735 15.7732 6.03735L14.3251 6.03751ZM12.1575 15.3417C12.5576 15.3417 12.8815 15.6694 12.8815 16.0749C12.8815 16.4814 12.5575 16.8122 12.1575 16.8122C11.759 16.8122 11.4336 16.4814 11.4336 16.0749C11.4336 15.6694 11.759 15.3417 12.1575 15.3417Z" fill="url(#paint1_linear_10_224)"/>
<path opacity="0.444" d="M15.2044 18.687C15.2044 19.2406 12.8894 19.6895 10.0339 19.6895C7.17828 19.6895 4.86328 19.2406 4.86328 18.687C4.86328 18.1333 7.17813 17.6844 10.0339 17.6844C12.8894 17.6844 15.2044 18.1331 15.2044 18.687Z" fill="url(#paint2_radial_10_224)"/>
<defs>
<linearGradient id="paint0_linear_10_224" x1="1.61517" y1="2.37355" x2="10.5142" y2="9.96259" gradientUnits="userSpaceOnUse">
<stop stop-color="#5A9FD4"/>
<stop offset="1" stop-color="#306998"/>
</linearGradient>
<linearGradient id="paint1_linear_10_224" x1="13.8621" y1="14.6801" x2="10.6708" y2="10.2047" gradientUnits="userSpaceOnUse">
<stop stop-color="#FFD43B"/>
<stop offset="1" stop-color="#FFE873"/>
</linearGradient>
<radialGradient id="paint2_radial_10_224" cx="0" cy="0" r="1" gradientUnits="userSpaceOnUse" gradientTransform="translate(10.013 18.6583) rotate(-90) scale(1.00286 4.40842)">
<stop stop-color="#B8B8B8" stop-opacity="0.498"/>
<stop offset="1" stop-color="#7F7F7F" stop-opacity="0"/>
</radialGradient>
</defs>
</svg>
