<svg  viewBox="0 0 20 20" fill="none" xmlns="http://www.w3.org/2000/svg">
<path d="M3.38202 0.3125C3.21905 0.3125 3.08671 0.445 3.08671 0.607813V16.0337C2.8639 16.6166 2.71421 17.0944 2.62468 17.4827C2.55968 17.782 2.5028 18.1286 2.51046 18.4275C2.51421 18.6875 2.6114 18.98 2.73562 19.1675C2.87062 19.3894 3.04655 19.5212 3.27452 19.6313C3.7303 19.8109 4.33968 19.7472 4.68702 19.5583C4.70233 19.5495 4.71593 19.5361 4.72999 19.5241H17.1003C17.3209 19.5241 17.4636 19.2897 17.3651 19.0928L14.0928 12.6153C14.0586 12.5478 14.0515 12.4698 14.0729 12.3973C14.0944 12.3247 14.1427 12.2631 14.2081 12.225C16.1228 11.125 17.4128 9.06094 17.4128 6.69125C17.4128 5.57875 17.1269 4.535 16.6247 3.62422H16.6256L16.6189 3.61328C16.608 3.59391 16.5989 3.57359 16.588 3.55437C16.5855 3.55172 16.5823 3.54937 16.5798 3.54672C16.5361 3.46937 16.4908 3.39203 16.4419 3.31391C16.4475 3.32078 16.4536 3.32719 16.4592 3.33406C16.3668 3.18679 16.2684 3.04333 16.1644 2.90406L16.1617 2.9L16.1608 2.89922C15.0159 1.35422 13.1947 0.343594 11.1323 0.3125H3.38202ZM13.1355 1.84656V1.84687C13.3073 1.84625 13.4292 1.85812 13.595 1.87281C13.6686 1.88109 13.742 1.89156 13.8153 1.90375C13.83 1.90609 13.8469 1.90969 13.8664 1.91313C13.9261 1.92375 13.9851 1.935 14.0437 1.94797C14.0542 1.95031 14.0664 1.95344 14.0809 1.95688C14.1422 1.97094 14.203 1.98594 14.2628 2.00266C14.2806 2.0075 14.2998 2.01375 14.3211 2.01984C14.3745 2.03547 14.4273 2.05172 14.4795 2.06906C14.498 2.07531 14.5173 2.0825 14.5381 2.08984C14.5939 2.10938 14.6491 2.12938 14.7031 2.15078L14.738 2.16531C14.797 2.18937 14.8555 2.21422 14.913 2.24063L14.9544 2.26016C15.0114 2.28719 15.0675 2.315 15.1231 2.34437C15.1337 2.35 15.1456 2.35687 15.1587 2.36391C15.2103 2.39172 15.2612 2.42016 15.3111 2.44984C15.3323 2.46266 15.3539 2.47625 15.3761 2.49C15.4208 2.51766 15.465 2.54578 15.5086 2.57516V2.57547C15.5701 2.61677 15.6306 2.65971 15.6898 2.70422V2.70453C15.8093 2.79437 15.9238 2.89066 16.0328 2.99297L16.0572 3.01656C15.3878 2.57172 14.5541 2.30656 13.762 2.27391C12.7147 2.23063 11.7283 2.59969 11.3359 3.51719C10.9348 4.45312 11.2722 5.43734 11.8184 6.16031C11.8572 6.21141 11.8991 6.25828 11.9397 6.30672C12.7692 5.11406 13.3434 4.30359 13.3434 4.30359L13.4169 4.20078L13.4762 4.3125C13.9173 5.14391 14.222 5.70437 14.3872 6.13312C14.4533 6.305 14.4664 6.46297 14.4472 6.64219C14.3331 7.26375 13.7883 7.67078 13.4045 7.99406C12.9458 8.37953 12.3197 8.89047 11.5198 9.65656C9.91405 11.1937 8.30093 13.5736 7.02655 15.6038C6.38937 16.6189 5.83718 17.5466 5.41546 18.2366C5.20452 18.5816 5.02593 18.8672 4.88655 19.0734C4.81687 19.1766 4.75687 19.26 4.70843 19.32C4.65999 19.38 4.61858 19.4169 4.60937 19.4222C4.27233 19.6245 3.72858 19.642 3.36249 19.5031C3.1514 19.4234 3.02546 19.2962 2.89124 19.1255C2.7564 18.9188 2.68546 18.6806 2.66749 18.4517C2.67452 18.06 2.7089 17.8188 2.78358 17.4867C3.01749 16.4913 3.64108 14.8972 5.00671 12.2794V12.2791C5.00692 12.2788 5.00713 12.2784 5.00733 12.2781L5.00765 12.2775C5.21077 11.8883 5.4303 11.4762 5.66749 11.04L5.66843 11.0383V11.038C6.52312 9.46641 7.23937 8.15953 7.85312 7.07391L7.8553 7.07C8.26358 6.34812 8.62702 5.72375 8.95624 5.185V5.18469L8.95655 5.18437V5.18406L8.95749 5.18297C9.45187 4.37422 9.86999 3.75703 10.2475 3.28922V3.28875L10.2487 3.2875C10.4372 3.05406 10.6161 2.8575 10.7889 2.69266C10.9045 2.5825 11.0169 2.48641 11.1286 2.40281C11.352 2.23531 11.5712 2.11687 11.7981 2.03328C11.9116 1.99141 12.0273 1.95828 12.1466 1.93219C12.445 1.86719 12.7669 1.84656 13.1355 1.84656ZM13.3964 4.50156C13.3601 4.55234 12.8175 5.31875 12.0439 6.43062C12.2626 6.67125 12.5012 6.87297 12.7366 7.02063C13.1048 7.23141 13.432 7.35984 13.7381 7.24062C13.9964 7.13953 14.0866 6.92734 14.1392 6.68859C14.2408 5.85516 13.7189 5.10578 13.3964 4.50172V4.50156Z" fill="#FF3333"/>
</svg>
