<svg viewBox="0 0 20 20" fill="none" xmlns="http://www.w3.org/2000/svg">
<path d="M15.9485 16.8269L10.7146 11.5927C10.2979 11.9367 9.81875 12.206 9.27708 12.4004C8.73542 12.5949 8.17507 12.6921 7.59604 12.6921C6.17174 12.6921 4.96632 12.199 3.97979 11.2127C2.99326 10.2265 2.5 9.02132 2.5 7.59729C2.5 6.1734 2.99312 4.96785 3.97937 3.98063C4.96563 2.99354 6.17076 2.5 7.59479 2.5C9.01868 2.5 10.2242 2.99326 11.2115 3.97979C12.1985 4.96632 12.6921 6.17174 12.6921 7.59604C12.6921 8.19118 12.5922 8.75958 12.3925 9.30125C12.1926 9.84292 11.926 10.314 11.5927 10.7146L16.8267 15.9485L15.9485 16.8269ZM7.59604 11.4423C8.66979 11.4423 9.57924 11.0697 10.3244 10.3244C11.0697 9.57924 11.4423 8.66979 11.4423 7.59604C11.4423 6.52229 11.0697 5.61285 10.3244 4.86771C9.57924 4.12243 8.66979 3.74979 7.59604 3.74979C6.52229 3.74979 5.61285 4.12243 4.86771 4.86771C4.12243 5.61285 3.74979 6.52229 3.74979 7.59604C3.74979 8.66979 4.12243 9.57924 4.86771 10.3244C5.61285 11.0697 6.52229 11.4423 7.59604 11.4423Z" fill="#ACACAC" fill-opacity="0.9"/>
</svg>
