<svg  viewBox="0 0 20 20" fill="none" xmlns="http://www.w3.org/2000/svg">
<g clip-path="url(#clip0_10_482)">
<path d="M18.1956 1.03797C17.9155 1.70995 17.5569 2.34646 17.1273 2.93422C15.2451 1.05311 12.6931 -0.00373562 10.032 -0.00405884C4.52875 -0.00405884 9.29802e-09 4.52844 9.29802e-09 10.0378C-5.85114e-05 11.3983 0.276125 12.7446 0.811813 13.9952C1.3475 15.2458 2.13154 16.3745 3.11641 17.3131L3.48641 17.6413C5.29468 19.1658 7.58338 20.0027 9.94859 20.0041C15.1809 20.0041 19.5794 15.9041 19.9519 10.6786C20.2255 8.12063 19.4752 4.88532 18.1956 1.03797ZM4.54172 17.3703C4.46117 17.4696 4.35949 17.5496 4.2441 17.6046C4.12871 17.6595 4.00251 17.6881 3.87469 17.6881C3.40313 17.6881 3.01734 17.3 3.01734 16.8284C3.01734 16.357 3.40563 15.9689 3.87469 15.9689C4.07 15.9689 4.26297 16.0366 4.41406 16.1617C4.78141 16.4586 4.83875 17.003 4.54172 17.3703ZM18.1541 14.3644C15.6786 17.6647 10.3916 16.5523 7.00156 16.7113C7.00156 16.7113 6.39969 16.7478 5.79516 16.8467C5.79516 16.8467 6.02172 16.7503 6.31625 16.6383C8.69531 15.81 9.82094 15.6484 11.267 14.9061C13.99 13.5203 16.6817 10.4883 17.242 7.33375C16.205 10.3684 13.0623 12.9759 10.1988 14.0361C8.23672 14.7603 4.69281 15.4636 4.69281 15.4636L4.54953 15.388C2.13672 14.2133 2.06359 8.98532 6.44906 7.29735C8.36953 6.5575 10.2066 6.96391 12.2808 6.46891C14.4956 5.94282 17.057 4.28079 18.0992 2.1136C19.2666 5.58079 20.6712 11.0092 18.1541 14.3644Z" fill="#77BC1F"/>
</g>
<defs>
<clipPath id="clip0_10_482">
<rect width="20" height="20" fill="white"/>
</clipPath>
</defs>
</svg>
