<svg viewBox="0 0 20 20" fill="none" xmlns="http://www.w3.org/2000/svg">
<path d="M16.773 0.31437L15.6927 0.381714L15.7769 2.62812C15.7813 2.75234 15.638 2.82484 15.5404 2.74781L14.8169 2.1775L13.9599 2.82781C13.9378 2.84457 13.9115 2.8547 13.8839 2.85701C13.8562 2.85933 13.8285 2.85373 13.804 2.84088C13.7794 2.82803 13.759 2.80846 13.7452 2.78445C13.7314 2.76044 13.7247 2.73299 13.7259 2.70531L13.8223 0.498589L3.10538 1.16875C2.85045 1.18463 2.61183 1.29954 2.44047 1.48895C2.2691 1.67836 2.17857 1.92725 2.1882 2.1825L2.79132 18.2509C2.80053 18.4964 2.90173 18.7295 3.07483 18.9038C3.24793 19.0782 3.48026 19.1811 3.7257 19.192L16.7901 19.7786C16.9221 19.7844 17.054 19.7635 17.1778 19.717C17.3015 19.6706 17.4146 19.5996 17.5102 19.5083C17.6059 19.417 17.682 19.3072 17.734 19.1857C17.786 19.0641 17.8128 18.9333 17.8127 18.8011V1.29125C17.8128 1.15755 17.7854 1.02526 17.7324 0.902544C17.6793 0.779834 17.6016 0.669311 17.5041 0.577808C17.4068 0.486253 17.2916 0.415639 17.1659 0.370329C17.0401 0.325018 16.9064 0.305973 16.773 0.31437ZM10.2949 3.62484C12.843 3.62484 14.2346 4.98781 14.2346 7.58093C13.8902 7.84859 11.3252 8.03093 11.3252 7.65015C11.3793 6.19703 10.7288 6.13343 10.3674 6.13343C10.024 6.13343 9.4457 6.23687 9.4457 7.01531C9.4457 8.93531 14.3973 8.83171 14.3973 12.7066C14.3973 14.8862 12.6262 16.0902 10.3674 16.0902C8.03616 16.0902 5.99913 15.147 6.22913 11.8772C6.31945 11.4933 9.28304 11.5845 9.28304 11.8772C9.2471 13.2264 9.55413 13.6233 10.331 13.6233C10.9274 13.6233 11.1987 13.2947 11.1987 12.7411C11.1987 10.7691 6.31945 10.7 6.31945 7.08468C6.31945 5.0089 7.7471 3.62484 10.2949 3.62484Z" fill="#FF4785"/>
</svg>
