<svg viewBox="0 0 20 20" fill="none" xmlns="http://www.w3.org/2000/svg">
<path d="M14.1188 15.7281C12.3828 16.6859 9.99687 16.7844 7.59531 15.8016C5.72284 15.0418 4.12186 13.737 3 12.0562C3.52136 12.4553 4.09096 12.7871 4.69531 13.0437C7.175 14.1531 9.65312 14.0766 11.3984 13.0437C8.91406 11.2219 6.80469 8.85312 5.23281 6.91875C4.92262 6.59184 4.64574 6.23487 4.40625 5.85312C6.30625 7.51094 9.32812 9.60313 10.4031 10.1953C8.86824 8.62264 7.45776 6.93319 6.18438 5.14219C8.30111 7.1992 10.6303 9.02558 13.1328 10.5906C13.2438 10.65 13.3297 10.7 13.3984 10.7469C13.4718 10.5678 13.5349 10.3847 13.5875 10.1984C14.1672 8.18437 13.5047 5.89531 12.0578 4C15.4078 5.93281 17.4 9.56406 16.5656 12.6047C16.5438 12.6875 16.5203 12.7609 16.4953 12.8469L16.525 12.8812C18.1797 14.8547 17.725 16.9437 17.5172 16.5531C16.6188 14.8687 14.9578 15.3891 14.1188 15.7281Z" fill="#F05138"/>
</svg>
