<svg viewBox="0 0 20 20" fill="none" xmlns="http://www.w3.org/2000/svg">
<g clip-path="url(#clip0_7_284)">
<path d="M3.54199 7.34375H19.1154V18.8547H3.54199V7.34375Z" fill="white"/>
<path d="M0.234375 9.98593V19.7516H19.7656V0.220306H0.234375V9.98593ZM15.9734 9.20468C16.4412 9.31324 16.8664 9.5579 17.1953 9.90781C17.3764 10.0963 17.5338 10.3062 17.6641 10.5328C17.6641 10.5578 16.8203 11.1281 16.3062 11.4469C16.2875 11.4594 16.2125 11.3781 16.1297 11.2547C16.0358 11.0928 15.9025 10.9572 15.7421 10.8608C15.5817 10.7643 15.3995 10.7101 15.2125 10.7031C14.6203 10.6625 14.2391 10.9734 14.2422 11.4844C14.2373 11.6116 14.2664 11.7378 14.3266 11.85C14.4563 12.1203 14.6984 12.2812 15.4578 12.6094C16.8563 13.2109 17.4547 13.6078 17.8266 14.1719C18.2422 14.7969 18.3344 15.8062 18.0531 16.5531C17.7406 17.3656 16.975 17.9172 15.8922 18.1C15.3976 18.1566 14.8979 18.1514 14.4047 18.0844C13.6487 17.9598 12.9523 17.5968 12.4172 17.0484C12.2375 16.85 11.8875 16.3328 11.9094 16.2953C11.9664 16.253 12.0265 16.2148 12.0891 16.1812L12.8125 15.7812L13.3734 15.4562L13.4906 15.6297C13.6884 15.9126 13.9401 16.1537 14.2313 16.3391C14.8563 16.6672 15.7094 16.6219 16.1312 16.2422C16.2729 16.103 16.3613 15.9186 16.381 15.7211C16.4007 15.5235 16.3504 15.3253 16.2391 15.1609C16.0828 14.9437 15.7703 14.7609 14.8969 14.3797C13.8891 13.9453 13.4547 13.6766 13.0578 13.2484C12.8101 12.9659 12.6271 12.6326 12.5219 12.2719C12.4434 11.8598 12.4318 11.4377 12.4875 11.0219C12.6953 10.0484 13.425 9.36874 14.4906 9.16718C14.9841 9.10612 15.484 9.11981 15.9734 9.20781V9.20468ZM11.3891 10.0234V10.8234H8.85312V18.0469H7.05469V10.8219H4.5125V10.0406C4.50458 9.77121 4.51084 9.50156 4.53125 9.23281C4.54375 9.21874 6.09375 9.21874 7.96875 9.21874H11.3797L11.3891 10.0234Z" fill="#007ACC"/>
</g>
<defs>
<clipPath id="clip0_7_284">
<rect width="20" height="20" fill="white"/>
</clipPath>
</defs>
</svg>
