<svg viewBox="0 0 20 20" fill="none" xmlns="http://www.w3.org/2000/svg">
<path d="M16.8749 10.625L16.7749 10.6813C16.7677 10.5199 16.6982 10.3676 16.5812 10.2563C16.5016 10.1442 16.3932 10.0558 16.2675 10.0003C16.1419 9.94478 16.0035 9.92427 15.8671 9.94092C15.7307 9.95757 15.6014 10.0108 15.4927 10.0949C15.3841 10.179 15.3002 10.2909 15.2499 10.4188C15.2187 10.4875 15.6937 11.1063 15.6749 11.175C15.5171 11.2456 15.3756 11.3481 15.2594 11.4761C15.1432 11.6041 15.0549 11.7548 14.9999 11.9188C15.0624 11.625 14.8437 11.4875 14.5124 11.5938C14.3462 11.6465 14.1957 11.7399 14.0746 11.8653C13.9535 11.9908 13.8655 12.1445 13.8187 12.3125C13.8624 12.0188 13.6249 11.8625 13.2874 11.9438C13.1236 11.9786 12.973 12.0594 12.8535 12.1768C12.7339 12.2941 12.6503 12.4431 12.6124 12.6063C12.6437 12.3188 12.3874 12.1313 12.0437 12.1875C11.8855 12.2092 11.7389 12.282 11.626 12.3949C11.5132 12.5077 11.4404 12.6544 11.4187 12.8125C11.4187 12.5188 11.1624 12.3125 10.7937 12.3313C10.6401 12.3301 10.4915 12.3856 10.3762 12.487C10.261 12.5885 10.1871 12.7288 10.1687 12.8813C10.1461 12.7322 10.0703 12.5964 9.9555 12.4988C9.84064 12.4011 9.69438 12.3483 9.54365 12.35C9.1999 12.35 8.91865 12.55 8.91865 12.8375C8.89414 12.6742 8.81553 12.5238 8.69541 12.4105C8.57529 12.2972 8.42061 12.2275 8.25615 12.2125C7.9124 12.1688 7.63115 12.3563 7.6999 12.65C7.66001 12.4864 7.57405 12.3376 7.4522 12.2213C7.33036 12.1049 7.17773 12.026 7.0124 11.9938C6.6749 11.9188 6.4374 12.0875 6.49365 12.3813C6.44049 12.2163 6.34777 12.0668 6.22358 11.9459C6.09938 11.825 5.94749 11.7363 5.78115 11.6875C5.4499 11.5813 5.23115 11.725 5.2999 12.0188C5.23115 11.725 4.49365 10.4875 4.4124 10.3063C4.19365 9.8 3.7874 9.64375 3.41865 9.96875C3.32985 10.0657 3.26809 10.1843 3.23957 10.3126C3.21105 10.441 3.21677 10.5746 3.25615 10.7C3.0249 10.6375 2.90615 10.75 2.99365 10.9938C3.45615 12.3563 3.91865 13.7313 4.2999 15.1188C4.40592 15.781 4.68393 16.4039 5.10615 16.925C5.45604 17.2286 5.85564 17.4696 6.2874 17.6375C7.51601 18.1237 8.8288 18.3616 10.1499 18.3375C11.6413 18.3532 13.1145 18.0079 14.4437 17.3313C14.9236 17.1101 15.3107 16.7274 15.5374 16.25C15.8687 15.4125 16.1124 14.5313 16.3687 13.6938C16.6624 12.7375 16.8812 11.725 17.2562 10.8313C17.3499 10.5563 17.1749 10.4563 16.8749 10.625Z" fill="#48A2AD"/>
<path d="M10.1064 14.4625C13.7439 14.4625 16.7002 13.275 16.7002 11.8125C16.7002 10.35 13.7502 9.16251 10.1064 9.16251C6.4627 9.16251 3.5127 10.35 3.5127 11.8125C3.5127 13.275 6.4627 14.4625 10.1064 14.4625Z" fill="url(#paint0_radial_7_568)"/>
<path d="M15.7061 8.03125C15.571 7.89575 15.4174 7.78002 15.2499 7.6875C15.2499 7.6875 11.0499 9.05 8.12485 8.90625C5.19985 8.7625 5.62485 8.4375 4.14985 9.375C4.14985 9.375 3.7436 9.95625 4.23735 10.3125C4.96556 10.8026 5.76146 11.1837 6.59985 11.4437C6.68613 11.3697 6.79301 11.3239 6.9061 11.3125C9.6936 10.35 15.1186 11.5812 15.7061 8.03125Z" fill="url(#paint1_linear_7_568)"/>
<path d="M15.7 8.03125C15.1125 11.575 9.69375 10.35 6.90625 11.3188C6.79126 11.3301 6.68236 11.3758 6.59375 11.45C8.84375 12.175 11.5937 12.325 13.4312 11.7125C15.7375 10.9437 16.7812 9.125 15.7 8.03125Z" fill="#EB5E8E"/>
<path d="M14.5123 5.41251C14.7771 5.60498 14.9892 5.86103 15.129 6.15703C15.2688 6.45304 15.3318 6.77948 15.3123 7.10626C15.3123 8.35626 14.2935 9.90626 9.78729 9.45626C5.28104 9.00626 4.16229 9.38751 4.16229 9.38751C4.16229 9.38751 2.79354 7.51251 5.64979 7.51251C8.21229 7.51251 12.0185 7.82501 12.9123 7.25626C14.256 6.43126 14.306 6.40626 14.5123 5.41251Z" fill="url(#paint2_linear_7_568)"/>
<path d="M9.31238 4.50625C10.6936 3.64375 10.6249 2.38125 9.93738 1.3125C9.8993 1.33258 9.86996 1.366 9.85497 1.40636C9.83998 1.44671 9.8404 1.49118 9.85613 1.53125C9.95817 1.70773 10.0155 1.90648 10.0231 2.11019C10.0308 2.3139 9.98844 2.51639 9.89988 2.7C9.49988 3.2625 8.76863 3.40625 7.56238 4.075C6.35613 4.74375 5.97488 5.325 5.89363 6.0875C5.89264 6.12304 5.90144 6.15816 5.91908 6.18903C5.93672 6.21989 5.96251 6.24531 5.99363 6.2625C6.23411 6.37515 6.48539 6.4631 6.74363 6.525C7.17488 5.525 8.38738 5 9.31238 4.50625Z" fill="#F77CA5"/>
<path d="M12.3377 2.9C11.7201 2.22501 10.9715 1.68276 10.1377 1.30625C10.1107 1.29201 10.0807 1.28458 10.0502 1.28458C10.0197 1.28458 9.98967 1.29201 9.9627 1.30625C10.6252 2.375 10.7002 3.63124 9.3377 4.49999C8.41895 4.95624 7.2002 5.51874 6.79395 6.51875C7.34444 6.65503 7.90823 6.73048 8.4752 6.74374C10.2439 6.79375 12.6189 6.69999 13.0252 6.00624C13.4314 5.31249 13.0689 3.68749 12.3377 2.9Z" fill="url(#paint3_linear_7_568)"/>
<path d="M14.3749 5.175C14.4065 5.09164 14.4315 5.00597 14.4499 4.91875C14.0456 4.43218 13.4881 4.09725 12.8687 3.96875C14.0687 6.53125 7.80615 5.975 6.0249 6.08125C5.74321 6.08085 5.46556 6.14822 5.21537 6.27766C4.96518 6.40711 4.7498 6.59483 4.5874 6.825C4.99182 6.64461 5.40977 6.49623 5.8374 6.38125C8.64365 5.7125 13.1874 8.51875 14.3749 5.175Z" fill="#F79EBC"/>
<path d="M14.6438 5.31876C14.6094 5.1762 14.5502 5.0408 14.4688 4.91876C14.4511 5.00685 14.4238 5.09276 14.3876 5.17501C13.1876 8.51876 8.64385 5.71251 5.84385 6.38126C5.41631 6.49656 4.99839 6.64493 4.59385 6.82501C4.38761 7.13996 4.27095 7.50508 4.25635 7.88126C6.08135 7.32501 7.43135 7.88126 10.9438 7.93751C14.4563 7.99376 14.8938 6.36876 14.6438 5.31876Z" fill="url(#paint4_linear_7_568)"/>
<path d="M16.8751 11.625C16.5405 11.7845 16.2775 12.0631 16.1376 12.4063C16.2251 12.1188 16.0251 12 15.7001 12.1188C15.5343 12.1801 15.3834 12.2758 15.2574 12.3997C15.1313 12.5236 15.033 12.6728 14.9688 12.8375C15.0376 12.5563 14.8251 12.4188 14.4876 12.5125C14.3184 12.5487 14.1615 12.6283 14.0322 12.7433C13.9029 12.8583 13.8057 13.0049 13.7501 13.1688C13.8001 12.8938 13.5688 12.7375 13.2251 12.8C13.063 12.8266 12.9123 12.8999 12.7912 13.0109C12.6702 13.1219 12.5842 13.2658 12.5438 13.425C12.5751 13.1563 12.3251 12.975 11.9813 13.0125C11.8265 13.0186 11.6781 13.0759 11.5593 13.1755C11.4406 13.275 11.3582 13.4111 11.3251 13.5625C11.3251 13.2938 11.0751 13.0938 10.7313 13.1C10.3876 13.1063 10.1063 13.3313 10.1063 13.6C10.0797 13.4544 10.0023 13.323 9.88783 13.2291C9.77338 13.1353 9.62933 13.0851 9.48134 13.0875C9.13759 13.0875 8.85634 13.2688 8.85634 13.5375C8.8253 13.3896 8.74801 13.2554 8.63566 13.1542C8.52331 13.0531 8.38171 12.9904 8.23134 12.975C7.88759 12.9313 7.60634 13.1063 7.66259 13.3813C7.62262 13.2229 7.53757 13.0796 7.41776 12.9687C7.29794 12.8577 7.14851 12.784 6.98759 12.7563C6.65009 12.6875 6.41259 12.8375 6.46259 13.1125C6.41054 12.9517 6.3193 12.8064 6.1971 12.6897C6.0749 12.5729 5.92558 12.4884 5.76259 12.4438C5.43134 12.3438 5.21259 12.475 5.27509 12.7563C5.21448 12.5911 5.11968 12.4406 4.9969 12.3146C4.87412 12.1886 4.72612 12.0899 4.56259 12.025C4.23759 11.9 4.03759 12.025 4.11884 12.3063C3.98303 11.9615 3.72491 11.6789 3.39384 11.5125C3.07509 11.3563 2.89384 11.4563 2.98759 11.75C3.36884 12.6375 3.61259 13.625 3.88134 14.5563C4.11921 15.3783 4.39874 16.1877 4.71884 16.9813C4.83099 17.2008 4.98532 17.396 5.173 17.5558C5.36067 17.7156 5.57802 17.8368 5.81259 17.9125C7.17307 18.4548 8.62978 18.7143 10.0938 18.675C11.4029 18.7059 12.708 18.52 13.9563 18.125C14.381 18.0017 14.7808 17.805 15.1376 17.5438C15.5672 17.0774 15.8498 16.4948 15.9501 15.8688C16.3376 14.5125 16.8001 13.1938 17.2563 11.8625C17.3563 11.5813 17.1813 11.4813 16.8751 11.625Z" fill="url(#paint5_linear_7_568)"/>
<defs>
<radialGradient id="paint0_radial_7_568" cx="0" cy="0" r="1" gradientUnits="userSpaceOnUse" gradientTransform="translate(8.83451 12.7172) rotate(90) scale(3.90625 6.11875)">
<stop offset="0.47" stop-color="#7A4C33"/>
<stop offset="1" stop-color="#52423C"/>
</radialGradient>
<linearGradient id="paint1_linear_7_568" x1="3.9936" y1="9.56875" x2="15.7061" y2="9.56875" gradientUnits="userSpaceOnUse">
<stop stop-color="#FF85AE"/>
<stop offset="0.32" stop-color="#FF7DA9"/>
<stop offset="0.82" stop-color="#FF669A"/>
<stop offset="1" stop-color="#FF5C93"/>
</linearGradient>
<linearGradient id="paint2_linear_7_568" x1="3.84354" y1="7.47501" x2="15.3123" y2="7.47501" gradientUnits="userSpaceOnUse">
<stop stop-color="#FFB0CB"/>
<stop offset="0.79" stop-color="#F383A9"/>
<stop offset="1" stop-color="#F0769F"/>
</linearGradient>
<linearGradient id="paint3_linear_7_568" x1="8.8252" y1="4.025" x2="13.5002" y2="4.025" gradientUnits="userSpaceOnUse">
<stop stop-color="#F697B7"/>
<stop offset="0.34" stop-color="#F78FB2"/>
<stop offset="0.86" stop-color="#F878A3"/>
<stop offset="1" stop-color="#F9719F"/>
</linearGradient>
<linearGradient id="paint4_linear_7_568" x1="4.2626" y1="6.42501" x2="14.7001" y2="6.42501" gradientUnits="userSpaceOnUse">
<stop stop-color="#F78FB2"/>
<stop offset="0.27" stop-color="#F887AD"/>
<stop offset="0.7" stop-color="#FC709F"/>
<stop offset="1" stop-color="#FF5C93"/>
</linearGradient>
<linearGradient id="paint5_linear_7_568" x1="10.1251" y1="12.65" x2="10.1251" y2="18.0125" gradientUnits="userSpaceOnUse">
<stop stop-color="#4FE8FF"/>
<stop offset="0.5" stop-color="#4BDDF3"/>
<stop offset="1" stop-color="#45CEE3"/>
</linearGradient>
</defs>
</svg>
