<svg viewBox="0 0 24 24" fill="none" xmlns="http://www.w3.org/2000/svg">
<path d="M5.25 3.5C4.0035 3.5 3 4.5035 3 5.75V19.25C3 20.4965 4.0035 21.5 5.25 21.5H18.75C19.9965 21.5 21 20.4965 21 19.25V5.75C21 4.5035 19.9965 3.5 18.75 3.5H5.25ZM10.4123 8.1875C10.8848 8.1875 11.166 8.4125 11.256 8.8625L12.3532 15.0898C12.702 14.6285 12.9878 14.24 13.2127 13.925C13.5615 13.43 13.8825 12.8615 14.175 12.2203C14.4787 11.579 14.631 11.0052 14.631 10.499C14.631 10.1953 14.5463 9.95375 14.3775 9.77375C14.22 9.5825 13.9215 9.341 13.4827 9.0485C13.9327 8.47475 14.4952 8.1875 15.1702 8.1875C15.5302 8.1875 15.8287 8.29475 16.065 8.5085C16.3125 8.72225 16.4355 9.0365 16.4355 9.4535C16.4355 10.151 16.143 11.0232 15.558 12.0695C14.9843 13.1045 13.8772 14.6623 12.2347 16.7435L10.5645 16.8605L9.28125 9.6395H7.59375V8.93C8.04375 8.78375 8.5725 8.6255 9.18 8.4575C9.7875 8.2775 10.1985 8.1875 10.4123 8.1875Z" fill="black"/>
</svg>
